<svg xmlns="http://www.w3.org/2000/svg" version="2.0" viewBox="310.275 300.927 690.50 535">
	<style>
		#logo-template {
			transform: scale(1) translateX(-50px);
		}
		.st0 , .st11 , .st12 , .st14 {
			fill-rule: evenodd;
			clip-rule: evenodd;
		}
		#vi-template {
			transform: scale(0.325) translateX(2080px) translateY(1675px);
		}
		.st0 {
			clip-path: url(#SVGID_00000132791327793165196640000013484937701985304721_);
		}
		.st1 {
			clip-path: url(#SVGID_00000132791327793165196640000013484937701985304721_);
			fill: #303030;
		}
		.st2 {
			clip-path: url(#SVGID_00000132791327793165196640000013484937701985304721_);
		}
		.st3 {
			clip-path: url(#SVGID_00000079451192547935647920000001116478774926550424_);
			fill: url(#SVGID_00000068676755883534113720000013250473453091070892_);
		}
		.st4 {
			clip-path: url(#SVGID_00000021814682638462781690000015922964767142650019_);
			fill: url(#SVGID_00000075130554436931898960000000638912318103997102_);
		}
		.st5 {
			clip-path: url(#SVGID_00000030456637897231333680000008310410146532314040_);
			fill: url(#SVGID_00000032645320090696838790000014023025310488847246_);
		}
		.st6 {
			filter: url(#SYScycle_OpacityMaskFilter);
		}
		.st7 {
			clip-path: url(#SVGID_00000163060156880273094400000009465947003182601104_);
			fill: url(#SVGID_00000036959979037919998100000001583131532117484425_);
		}
		.st8 {
			clip-path: url(#SVGID_00000163060156880273094400000009465947003182601104_);
			mask: url(#SVGID_00000154386724790137507780000009278409607743215009_);
			fill: url(#SVGID_00000009591904003201427420000000348235717549284534_);
		}
		.st9 {
			clip-path: url(#SVGID_00000046311348388320341210000001447265486244571029_);
			fill: url(#SVGID_00000076585218171137802840000013164405593069275557_);
		}
		.st10 {
			clip-path: url(#SVGID_00000161595494764556448650000008737813675616674483_);
			fill: url(#SVGID_00000004521881755682826570000010901703263577960347_);
		}
		.st11 {
			clip-path: url(#SVGID_00000132791327793165196640000013484937701985304721_);
			fill: #1D0030;
		}
		.st12 {
			clip-path: url(#SVGID_00000132791327793165196640000013484937701985304721_);
			fill: #FF2B90;
		}
		.st13 {
			clip-path: url(#SVGID_00000132791327793165196640000013484937701985304721_);
			fill: #FFFFFF;
		}
		.st14 {
			clip-path: url(#SVGID_00000132791327793165196640000013484937701985304721_);
			fill: #FFFFFF;
		}
	</style>
	<g id="logo-template">
		<path clip-path="url(#SVGID_00000177448512015924478780000011523092377029609132_)" fill-rule="evenodd" clip-rule="evenodd" fill="#1D0030" d="
			M936.79,601.81l0,0.35c-0.09,7.62-2.79,13.51-8.09,17.66c-4.68,3.66-11.03,5.49-19.04,5.49c-0.57,0-0.69,0-0.63,0h-46.68
			c-18.5,0-27.75-7.85-27.75-23.54v-27.2h-42.97v44.98c7.98,0.1,14.3,1.98,18.94,5.63c5.44,4.28,8.16,10.34,8.16,18.18v93.54
			c0,7.78-2.74,13.79-8.23,18.04c-4.77,3.69-11.29,5.54-19.56,5.54h-46.87c-8.27,0-14.79-1.85-19.56-5.54
			c-1.48-1.14-2.75-2.41-3.83-3.81c-1.1,1.45-2.4,2.75-3.91,3.93c-4.75,3.68-11.27,5.47-19.56,5.39v0.03h-46.87
			c-8.27,0-14.79-1.85-19.56-5.54c-3.32-2.57-5.63-5.78-6.95-9.64c-1.31,3.86-3.63,7.07-6.95,9.64c-4.77,3.69-11.29,5.54-19.56,5.54
			H456.68c-8.27,0-14.79-1.85-19.56-5.54c-5.49-4.25-8.23-10.26-8.23-18.04c0-34.86,0-61.79,0-93.54c0-7.84,2.72-13.9,8.16-18.18
			c4.77-3.75,11.32-5.63,19.63-5.63h5.85c-4.72-3.92-7.08-9.85-7.08-17.77v-56.23h-9.3v-37.94c-2.82,0.63-5.94,0.95-9.36,0.95H362.3
			c0-49.99,0-96.97,0-150.74c0-7.83,2.72-13.88,8.15-18.15c4.77-3.75,11.3-5.62,19.59-5.62h140.23c8.3,0,14.83,1.87,19.6,5.62
			c1.45,1.14,2.71,2.41,3.78,3.81c1.06-1.4,2.32-2.67,3.78-3.81c4.77-3.75,11.3-5.62,19.6-5.62h140.23c3.05,0,6.05,0.47,8.99,1.4
			c2.77,0.88,5.53,2.22,8.26,4.02l0.14,0.07c2.08,1.42,3.85,3,5.32,4.72c1.14-1.67,2.55-3.17,4.22-4.5
			c4.58-3.66,10.91-5.55,18.98-5.67c1.77-0.03-0.46-0.04,0.83-0.04h18.77v-31.24h55.72v169.63h-74.49c-7.97,0-14.3-1.66-19-4.97v4.97
			H604.76v12.08h18.66c8.3,0,14.83,1.87,19.59,5.62c1.45,1.14,2.71,2.41,3.78,3.81c1.06-1.4,2.32-2.67,3.78-3.81
			c4.77-3.75,11.3-5.62,19.6-5.62h46.74c8.3,0,14.83,1.87,19.6,5.62c1.47,1.16,2.74,2.44,3.82,3.86c1.06-1.37,2.3-2.62,3.74-3.75
			c4.7-3.7,11.2-5.6,19.49-5.7l0.11-0.04l126.66-0.04v10.67h46.52v106.62L936.79,601.81z"/>

		<path clip-path="url(#SVGID_00000177448512015924478780000011523092377029609132_)" fill-rule="evenodd" clip-rule="evenodd" fill="#FF2B90" d="
			M938.55,602.56c-0.09,3.91-0.84,7.4-2.25,10.48c-1.47,3.21-3.64,5.94-6.52,8.19c-2.52,1.97-5.47,3.45-8.87,4.43
			c-3.35,0.97-7.1,1.45-11.26,1.45v-0.01c-0.21,0-0.43-0.01-0.63,0v0h-0.11c-17.01,0.68-29.12,0.52-35.76,0h-10.81
			c-19.69,0-29.53-8.44-29.53-25.32v-25.42H793.4v41.48c3.46,0.16,6.61,0.66,9.44,1.5c3.38,1,6.32,2.49,8.81,4.45
			c2.95,2.32,5.16,5.13,6.64,8.43c1.47,3.27,2.2,6.98,2.2,11.15v93.54c0,4.14-0.74,7.83-2.23,11.08c-1.49,3.27-3.73,6.06-6.7,8.36
			c-2.57,1.99-5.59,3.47-9.07,4.46c-3.42,0.97-7.28,1.45-11.57,1.45h-46.87c-4.29,0-8.15-0.48-11.57-1.45
			c-3.48-0.99-6.51-2.47-9.07-4.46c-0.8-0.62-1.54-1.27-2.23-1.96c-0.17-0.17-0.34-0.34-0.51-0.52c-0.18,0.2-0.37,0.39-0.55,0.58
			c-0.71,0.71-1.47,1.38-2.29,2.01c-2.56,1.98-5.58,3.45-9.07,4.41c-2.94,0.81-6.2,1.25-9.79,1.34v0.05h-48.65
			c-4.29,0-8.15-0.48-11.57-1.45c-3.48-0.99-6.51-2.47-9.07-4.46c-1.79-1.39-3.32-2.96-4.58-4.7c-0.46-0.64-0.89-1.31-1.28-2
			c-0.39,0.69-0.82,1.36-1.28,2c-1.26,1.75-2.79,3.32-4.58,4.7c-2.57,1.99-5.59,3.47-9.07,4.46c-3.42,0.97-7.28,1.45-11.57,1.45
			H456.68c-4.29,0-8.15-0.48-11.57-1.45c-3.48-0.99-6.51-2.47-9.07-4.46c-2.98-2.3-5.21-5.09-6.7-8.36
			c-1.48-3.25-2.23-6.94-2.23-11.08v-93.54c0-4.16,0.73-7.88,2.2-11.15c1.48-3.3,3.7-6.11,6.64-8.43c2.57-2.02,5.6-3.53,9.1-4.54
			c3.43-0.98,7.31-1.48,11.63-1.48h1.68c-1.14-1.48-2.07-3.13-2.79-4.95c-1.27-3.18-1.9-6.86-1.9-11.04v-54.45h-9.3v-37.57
			c-0.81,0.13-1.65,0.24-2.5,0.33c-1.65,0.17-3.34,0.25-5.08,0.25h-76.27V357.82c0-4.16,0.73-7.87,2.2-11.13
			c1.48-3.3,3.69-6.1,6.63-8.41c2.57-2.02,5.59-3.53,9.08-4.53c3.43-0.98,7.3-1.47,11.61-1.47h140.23c8.71,0,15.6,2,20.69,6
			c0.77,0.61,1.5,1.26,2.19,1.95c0.16,0.17,0.33,0.33,0.48,0.5c0.16-0.17,0.32-0.34,0.48-0.5c0.69-0.7,1.42-1.35,2.19-1.95
			c2.57-2.02,5.59-3.53,9.09-4.53c3.43-0.98,7.3-1.47,11.61-1.47h140.23c3.23,0,6.41,0.49,9.52,1.48c1.47,0.47,2.93,1.05,4.39,1.76
			c1.39,0.68,2.8,1.48,4.22,2.42l0.18,0.09l0.07,0.05c1.11,0.76,2.13,1.55,3.07,2.39l0,0c0.39,0.34,0.76,0.69,1.12,1.05
			c0.24-0.29,0.49-0.57,0.75-0.84c0.76-0.81,1.59-1.58,2.49-2.3c2.47-1.97,5.39-3.46,8.78-4.47c3.31-0.99,7.07-1.52,11.29-1.58
			c0.03,0,0.06,0,0.08,0.01c0.23-0.04,0.48-0.06,0.78-0.06h16.99v-31.24h59.28v173.19h-76.27c-4.12,0-7.85-0.44-11.17-1.3
			c-2.2-0.58-4.21-1.34-6.05-2.29v3.6H606.54v8.52h16.88c4.31,0,8.18,0.49,11.61,1.47c3.49,1,6.52,2.51,9.09,4.53
			c0.77,0.61,1.5,1.26,2.19,1.95c0.16,0.17,0.33,0.33,0.48,0.5c0.16-0.17,0.32-0.34,0.48-0.5c0.69-0.7,1.42-1.35,2.19-1.95
			c2.57-2.02,5.59-3.53,9.08-4.53c3.43-0.98,7.3-1.47,11.61-1.47h46.74c4.31,0,8.18,0.49,11.61,1.47c3.49,1,6.52,2.51,9.09,4.53
			c0.78,0.61,1.52,1.28,2.22,1.99c0.17,0.17,0.34,0.35,0.51,0.53c0.15-0.16,0.3-0.32,0.46-0.47c0.68-0.69,1.41-1.33,2.17-1.93
			c2.53-1.99,5.53-3.49,9.01-4.5c3.33-0.97,7.09-1.49,11.28-1.57l0.12-0.04c42.91-0.04,85.82-0.03,128.73-0.04v10.66h46.52V602.5
			L938.55,602.56z M623.8,745.3c-1.31,3.86-3.63,7.07-6.95,9.64c-4.77,3.69-11.29,5.54-19.56,5.54H456.68
			c-8.27,0-14.79-1.85-19.56-5.54c-5.49-4.25-8.23-10.26-8.23-18.04v-93.54c0-7.84,2.72-13.9,8.16-18.18
			c4.77-3.75,11.32-5.63,19.63-5.63h5.85c-4.72-3.92-7.08-9.85-7.08-17.77v-56.23h-9.3v-37.94c-2.82,0.63-5.94,0.95-9.36,0.95H362.3
			V357.82c0-7.83,2.72-13.88,8.15-18.15c4.77-3.75,11.3-5.62,19.59-5.62h140.23c8.3,0,14.83,1.87,19.6,5.62
			c1.45,1.14,2.71,2.41,3.78,3.81c1.06-1.4,2.32-2.67,3.78-3.81c4.77-3.75,11.3-5.62,19.6-5.62h140.23c3.05,0,6.05,0.47,8.99,1.4
			c2.77,0.88,5.53,2.22,8.26,4.02l0.14,0.07c2.08,1.42,3.85,3,5.32,4.72c1.14-1.67,2.55-3.17,4.22-4.5
			c4.58-3.66,10.91-5.55,18.98-5.67c1.77-0.03-0.46-0.04,0.83-0.04h18.77v-31.24h55.72v169.63h-74.49c-7.97,0-14.3-1.66-19-4.97v4.97
			H604.76v12.08h18.66c8.3,0,14.83,1.87,19.59,5.62c1.45,1.14,2.71,2.41,3.78,3.81c1.06-1.4,2.32-2.67,3.78-3.81
			c4.77-3.75,11.3-5.62,19.59-5.62h46.74c8.3,0,14.83,1.87,19.6,5.62c1.47,1.16,2.74,2.44,3.82,3.86c1.06-1.37,2.3-2.62,3.74-3.75
			c4.7-3.7,11.2-5.6,19.49-5.7l0.11-0.04l126.66-0.04v10.67h46.52v106.62l-0.04,0.04l0,0.35c-0.09,7.62-2.79,13.51-8.09,17.66
			c-4.68,3.66-11.03,5.49-19.04,5.49c-0.57,0-0.69,0-0.63,0h-46.68c-18.5,0-27.75-7.85-27.75-23.54v-27.2h-42.97v44.98
			c7.98,0.1,14.3,1.98,18.94,5.63c5.44,4.28,8.16,10.34,8.16,18.18v93.54c0,7.78-2.75,13.79-8.23,18.04
			c-4.77,3.69-11.29,5.54-19.56,5.54h-46.87c-8.27,0-14.79-1.85-19.56-5.54c-1.48-1.14-2.75-2.41-3.83-3.81
			c-1.1,1.45-2.4,2.75-3.91,3.93c-4.75,3.68-11.27,5.47-19.56,5.39v0.03h-46.87c-8.27,0-14.79-1.85-19.56-5.54
			C627.43,752.37,625.12,749.15,623.8,745.3z"/>
		<path clip-path="url(#SVGID_00000177448512015924478780000011523092377029609132_)" fill="#FFFFFF" d="M548.54,601.78
			c0,9.75-6.2,14.55-18.61,14.4h-46.74c-12.4,0-18.61-4.8-18.61-14.4v-65.37h-9.3v-28.8h9.3v-14.18h37.44v14.18h46.52v28.8h-46.52
			v50.97h9.3v-43.65h37.21V601.78z M417.95,372.22h-9.08v62.29h9.08V372.22z M455.39,485.02c0,9.6-6.2,14.4-18.61,14.4h-65.35v-28.8
			h46.52v-7.31h-27.91c-12.71,0-18.91-4.8-18.61-14.4v-91.09c0-9.75,6.2-14.63,18.61-14.63h65.35V485.02z M511.44,372.22h-9.08v14.4
			h9.08V372.22z M530.27,495.18c-4.24,0-8.32-1.3-12.25-3.89c-4.39-3.05-6.58-6.55-6.58-10.51v-65.14h-9.08v67.01h-37.44V343.19
			h65.35c12.41,0,18.61,4.88,18.61,14.63v31.08c0,5.79-3.1,9.83-9.3,12.11c6.2,2.29,9.3,6.32,9.3,12.11v58.96h46.74v16.45h-0.11v5.12
			h27.91c12.4,0,18.61,4.88,18.61,14.63v107.88h-37.44v-93.48h-9.08v93.48h-37.44V495.18H530.27z M604.93,415.65h-9.08v18.87h9.08
			V415.65z M577.01,463.31c-12.4,0-18.61-4.8-18.61-14.4v-47.89c0-9.45,6.2-14.25,18.61-14.4h27.91v-14.4h-9.08v7.09h-37.44v-21.48
			c0-9.75,6.2-14.63,18.61-14.63h46.74c12.4,0,18.61,4.88,18.61,14.63v105.49H577.01z M698.41,463.31v-91.09h-9.08v91.09h-37.44
			V343.19h37.44v7.31c6.2-4.88,15.51-7.31,27.91-7.31c4.24,0,8.32,1.3,12.25,3.89c4.23,2.9,6.35,6.48,6.35,10.74v105.49H698.41z
			M791.9,372.22h-9.08v62.29h9.08V372.22z M763.99,463.31c-12.71,0-18.91-4.8-18.61-14.4v-91.09c-0.15-9.75,6.05-14.63,18.61-14.63
			h27.91v-31.24h37.44v151.35H763.99z M698.07,522.69h-9.08v14.4h9.08V522.69z M735.51,601.78c0,9.6-6.2,14.4-18.61,14.4h-46.74
			c-12.4,0-18.61-4.8-18.61-14.4V508.3c0-9.75,6.2-14.63,18.61-14.63h46.74c12.4,0,18.61,4.88,18.61,14.63v64.46h-46.52v14.63h9.08
			v-7.31h37.44V601.78z M782.48,565.44v50.74h-37.44V508.3c0-9.6,6.2-14.48,18.61-14.63h62.36v29.03h-43.53v7.09h43.53v35.66H782.48z
			M484.67,703.92h-9.1v18.54h9.1V703.92z M456.68,751.33c-12.44,0-18.66-4.81-18.66-14.44v-50.22c0-9.47,6.22-14.28,18.66-14.44
			h27.99V657.8h-9.1v7.1h-37.54v-21.54c0-9.78,6.22-14.67,18.66-14.67h46.87c12.44,0,18.66,4.89,18.66,14.67v107.98H456.68z
			M615.95,736.89c0,9.63-6.22,14.44-18.66,14.44h-46.87c-12.44,0-18.66-4.81-18.66-14.44v-108.2h37.54v93.77h9.1v-93.77h37.54
			V736.89z M715.84,736.89c0,9.78-6.22,14.59-18.66,14.44h-46.87c-12.44,0-18.66-4.81-18.66-14.44V664.9h-9.33v-28.88h9.33v-10.99
			h37.54v10.99h46.64v28.88H669.2v57.56h9.33v-50.22h37.32V736.89z M772.04,657.8h-9.1v64.66h9.1V657.8z M927.64,601.78
			c0,9.75-6.2,14.55-18.61,14.4h-46.74c-12.4,0-18.61-4.8-18.61-14.4v-65.37h-9.3v-28.8h9.3v-14.18h37.44v14.18h46.52v28.8h-46.52
			v50.97h9.3v-43.65h37.21V601.78z M809.58,736.89c0,9.63-6.22,14.44-18.66,14.44h-46.87c-12.44,0-18.66-4.81-18.66-14.44v-93.54
			c0-9.78,6.22-14.67,18.66-14.67h46.87c12.44,0,18.66,4.89,18.66,14.67V736.89z"/>

		<path clip-path="url(#SVGID_00000177448512015924478780000011523092377029609132_)" fill-rule="evenodd" clip-rule="evenodd" fill="#FFFFFF" d="
			M827.92,632.61h0.86c0.56,0,0.91-0.02,1.05-0.07c0.14-0.05,0.25-0.13,0.33-0.24c0.08-0.12,0.12-0.26,0.12-0.43
			c0-0.19-0.05-0.35-0.16-0.47c-0.1-0.12-0.25-0.19-0.44-0.23c-0.1-0.01-0.38-0.02-0.85-0.02h-0.91V632.61z M832.67,629.72
			c-0.85-0.85-2.03-1.38-3.33-1.38c-1.3,0-2.48,0.53-3.33,1.38c-0.85,0.85-1.38,2.03-1.38,3.33c0,1.3,0.53,2.48,1.38,3.33l0,0
			c0.85,0.85,2.03,1.38,3.33,1.38c1.3,0,2.48-0.53,3.33-1.38c0.85-0.85,1.38-2.03,1.38-3.33
			C834.05,631.75,833.53,630.57,832.67,629.72z M829.35,627.16c1.63,0,3.1,0.66,4.16,1.72c1.07,1.07,1.72,2.54,1.72,4.16
			c0,1.63-0.66,3.1-1.72,4.16c-1.07,1.07-2.54,1.72-4.16,1.72s-3.09-0.66-4.16-1.72l0,0c-1.07-1.07-1.72-2.54-1.72-4.16
			c0-1.62,0.66-3.09,1.73-4.16C826.25,627.82,827.72,627.16,829.35,627.16z M826.75,635.93v-5.77h2.45c0.62,0,1.06,0.05,1.34,0.16
			c0.28,0.1,0.5,0.29,0.67,0.55c0.17,0.27,0.25,0.57,0.25,0.91c0,0.43-0.13,0.79-0.38,1.07c-0.25,0.28-0.63,0.46-1.14,0.53
			c0.25,0.15,0.46,0.31,0.62,0.48c0.16,0.18,0.38,0.49,0.66,0.94l0.7,1.12h-1.39l-0.84-1.26c-0.3-0.45-0.5-0.73-0.62-0.85
			c-0.11-0.12-0.23-0.2-0.35-0.24c-0.12-0.04-0.32-0.06-0.59-0.06h-0.24v2.41H826.75z"/>
	</g>
	<g id="vi-template">
		<defs>
			<rect id="SVGID_1_" width="1133.86" height="1133.86" class="vi-template"/>
		</defs>
		<clipPath id="SVGID_00000177448512015924478780000011523092377029609132_">
			<use href="#SVGID_1_" style="overflow:visible"/>
		</clipPath>

		<rect clip-path="url(#SVGID_00000177448512015924478780000011523092377029609132_)" fill-rule="evenodd" clip-rule="evenodd" x="20.06" y="20.44" width="1093.36" height="1093.36" fill="none"/>
		<g clip-path="url(#SVGID_00000177448512015924478780000011523092377029609132_)">
			<defs>
				<path id="SVGID_00000133524956243122304440000009749098492463844489_" d="M967.81,270.22H792.67v593.8h175.14V270.22z
					M776.95,238.77h222.31v656.7H761.22V251.94L629.44,524.88L450.9,894.66L134.22,238.77h242l74.68,151.8l74.68-151.8h235.64h6.36
					H776.95z M450.9,822.51l266.66-552.29H545.07L450.9,461.63l-94.17-191.41H184.24L450.9,822.51z"/>
			</defs>
			<clipPath id="SVGID_00000044146890780910777070000000173307891429636742_">
				<use href="#SVGID_00000133524956243122304440000009749098492463844489_" style="overflow:visible"/>
			</clipPath>

			<linearGradient id="SVGID_00000139989027841909497210000005140475155315467437_" gradientUnits="userSpaceOnUse" x1="566.7383" y1="238.7716" x2="566.7383" y2="895.4686">
				<stop offset="0" stop-color="#350054"/>
				<stop offset="1" stop-color="#6D016D"/>
			</linearGradient>

			<rect x="134.22" y="238.77" clip-path="url(#SVGID_00000044146890780910777070000000173307891429636742_)" fill="url(#SVGID_00000139989027841909497210000005140475155315467437_)" width="865.03" height="656.7"/>
		</g>
		<g clip-path="url(#SVGID_00000177448512015924478780000011523092377029609132_)">
			<defs>
				<polygon id="SVGID_00000018942030025901681440000003734465296575754930_" points="450.9,858.58 615.32,518.06 742.57,254.49
					535.33,254.49 450.9,426.1 366.48,254.49 159.23,254.49 286.49,518.06"/>
			</defs>
			<clipPath id="SVGID_00000160882976856669312200000016571818064434639286_">
				<use href="#SVGID_00000018942030025901681440000003734465296575754930_" style="overflow:visible"/>
			</clipPath>

			<linearGradient id="SVGID_00000011736858962000836430000017401372474729833100_" gradientUnits="userSpaceOnUse" x1="450.9023" y1="858.5844" x2="450.9023" y2="254.4948">
				<stop offset="0" stop-color="#E6953E"/>
				<stop offset="0.5" stop-color="#FF4CB9"/>
				<stop offset="1" stop-color="#2B60DA"/>
			</linearGradient>

			<rect x="159.23" y="254.49" clip-path="url(#SVGID_00000160882976856669312200000016571818064434639286_)" fill="url(#SVGID_00000011736858962000836430000017401372474729833100_)" width="583.34" height="604.09"/>
		</g>
		<g clip-path="url(#SVGID_00000177448512015924478780000011523092377029609132_)">
			<defs>
				<rect id="SVGID_00000026142488870131896740000016752107364178320794_" x="776.95" y="254.49" width="206.59" height="625.25"/>
			</defs>
			<clipPath id="SVGID_00000165208735871233005480000005564922317507316864_">
				<use href="#SVGID_00000026142488870131896740000016752107364178320794_" style="overflow:visible"/>
			</clipPath>

			<linearGradient id="SVGID_00000115484060331407227460000003344277893991730601_" gradientUnits="userSpaceOnUse" x1="880.2382" y1="879.7456" x2="880.2382" y2="254.4948">
				<stop offset="0" stop-color="#E6953E"/>
				<stop offset="0.5" stop-color="#FF4CB9"/>
				<stop offset="1" stop-color="#2B60DA"/>
			</linearGradient>

			<rect x="776.95" y="254.49" clip-path="url(#SVGID_00000165208735871233005480000005564922317507316864_)" fill="url(#SVGID_00000115484060331407227460000003344277893991730601_)" width="206.59" height="625.25"/>
		</g>
		<g clip-path="url(#SVGID_00000177448512015924478780000011523092377029609132_)">
			<defs>
				<path id="SVGID_00000122704873521486342860000002080059073053784222_" d="M398.24,536.45c-2.45-9.39-4.33-19.1-5.87-29
					c1.28,13.41,1.07,26.75,0.75,40.09C394.81,543.83,396.52,540.14,398.24,536.45 M404.69,502.41l-1.24,23.05
					c2.18-4.54,4.39-9.07,6.63-13.59L404.69,502.41z M564,467.9l63.14,7.22l-42.82-45.43l19.56,34.09l-21.22-18.06l7.01,17.32
					l-37.47-30.59l26.21,34.46l-30.82-23.58L564,467.9z M539.64,465.12l24.09,2.75l-42.16-29.52L539.64,465.12z M505.05,461.16
					l4.46,0.51l-8.61-15.58L505.05,461.16z M461.78,473.43l8.15,10.64l-2.88-11.25L461.78,473.43z M405.91,479.89l-0.03,0.48
					l0.96-0.59L405.91,479.89z M386.32,478.46c5.51-0.31,11.04-0.55,16.58-0.75l10.33-24.61
					C402.76,460.93,394.1,469.52,386.32,478.46z M366.37,479.85c5.02-0.43,10.06-0.79,15.12-1.11c4.1-11.03,10.85-20.98,18.82-30.44
					C388.01,457.05,376.91,467.94,366.37,479.85z M350.94,481.36c4.02-0.45,8.06-0.85,12.11-1.22c5.12-10.77,9.54-21.38,13.26-31.84
					C366.75,459.07,358.43,470.12,350.94,481.36z M333.58,483.59c4.14-0.61,8.29-1.16,12.46-1.66c1.02-5.45,2.78-10.98,5.91-16.67
					C344.83,471.09,338.93,477.27,333.58,483.59z M889.96,441.4c0.63,8.33,1.44,16.91,2.4,25.68l-4.36-9.22
					C888.71,452.38,889.82,446.93,889.96,441.4z M843.83,428.14c-4.63-4.68-9.24-9.33-13.72-14.01c9.82,5.08,19.65,8.75,29.47,9.65
					C855.32,426.53,850.05,427.85,843.83,428.14z M863.14,448.06c-2.79-3.01-5.64-5.98-8.5-8.94c3.85,2.11,7.88,3.83,11.96,5.47
					C865.9,446.48,864.71,447.58,863.14,448.06z M882.63,471.21c1.19-0.14,2.46-0.23,3.77-0.31c-3.24-5.64-7.59-9.85-13.57-11.98
					C876.25,462.94,879.53,467.02,882.63,471.21z M933.07,412.68c3.33-4.86,6.87-9.63,10.64-14.28
					c-11.77,4.82-21.66,11.19-30.21,18.65C920.3,415.09,926.91,413.47,933.07,412.68z M923.76,427.47c2.03-3.53,4.17-7.02,6.42-10.47
					c-6.41,3.87-12.3,7.74-17.98,11.61C916.29,428.01,920.36,427.44,923.76,427.47z M917.18,439.74c1.19-2.39,2.43-4.77,3.71-7.14
					c-5.61,3.39-10.54,7.24-15.34,11.17C909.52,442.18,913.41,440.8,917.18,439.74z M904.63,470.48c2.94-9.05,6.48-17.99,10.62-26.75
					c-12.13,6.08-14.41,9.24-16.63,26.82C900.74,470.49,902.77,470.46,904.63,470.48z M940.66,461.63c4.58-1.96,9.34-3.84,14.28-5.66
					c-7.87-1.25-16.46-3.51-25.81-6.81C933.56,453.27,937.4,457.42,940.66,461.63z M915.84,474.07c5.8-3.43,12.06-6.68,18.75-9.75
					c-4.31-2.1-9.01-4.62-14.14-7.61l-11.63,13.99c0.87,0.09,1.66,0.22,2.37,0.39C913.45,471.62,914.84,472.59,915.84,474.07z
					M943.4,490.02c-7.42-1.43-15.25-2.36-23.7-2.55c-0.22-1.54-0.49-3.05-0.8-4.48C927.17,481.11,935.49,477.04,943.4,490.02z
					M847.17,641.61c-6.08,8.63-10.26,18.3-10.43,30.13C839.82,661.63,843.23,651.58,847.17,641.61z M897.36,592.64
					c-12.44-11.41-17.31-25.53-17.44-41.36C885.34,565.46,890.96,579.43,897.36,592.64z M874.37,492.11l-1.7,8.72
					c1.09-1.92,2.19-3.8,3.29-5.61c-0.43-0.68-0.81-1.39-1.15-2.13C874.65,492.77,874.51,492.44,874.37,492.11z M859.94,488.32
					c4.34-0.23,8.69-0.4,13.03-0.48c-0.64-2.56-0.95-5.16-0.89-7.42c0.04-1.58,0.27-2.99,0.81-4.21l-2.54-0.57L859.94,488.32z
					M843.11,489.55c4.17-0.38,8.33-0.71,12.5-0.97l-0.95-7.96L843.11,489.55z M835.76,490.27c1.94-0.2,3.87-0.4,5.81-0.58l0.17-12.2
					L835.76,490.27z M812.64,493.18c1.41-0.2,2.83-0.4,4.24-0.6l2.52-14.72L812.64,493.18z M823.28,368.86l-17-18.97l14.3,6.25
					l-0.31-1.47l-18.5-19.24l7.57,3.5l-5.54-16.03l12.3,12.16l-5.23-24.6c-1.54-3.96-2.33-7.92-2.77-11.88
					c4.28,7.95,8.76,13.95,13.29,19.44c-7.39-21.31-7.43-36.79-0.55-46.8c1.73,14.79,4.17,29,7.38,42.56
					c0.31-14.1,3.74-27.3,15.87-37.96c-4.05,14.61-5.98,28.57-6.83,42.19c4.22-10.87,9.12-20.82,16.06-28.01
					c-1.14,7.7-2.67,15.7-4.8,24.14c2.9-2.93,6.08-7.08,9.97-14.19c0,14.52-2.58,30.34-3.88,45.51c6.98-8.56,9.94-18.16,11.26-28.19
					c12.64,25.4,0.65,50.98-1.11,62.09c5.4-6.88,9.43-16.7,13.1-27.27c2.85,13.05,2.13,27.49-1.66,43.11
					c2.6-2.11,5.4-5.81,8.49-11.98c1.94,13.06,2.56,26.07-3.14,38.88c1.91-1,3.81-2.75,5.72-5.53c0.58,7.12,0.65,14.44-0.74,22.29
					l2.93-4.75c-3.41-53.46,1.28-95.96,22.93-115.47c-2.08,4.67-3.08,9.46-2.95,14.37c5.66-15.85,13.29-27.02,22.89-33.53
					c-3.43,4.35-5.67,9.04-7.01,14c10.84-12.62,21.88-24.5,34.7-30.22c-1.7,2.09-2.85,4.18-3.69,6.26
					c8.61-6.64,17.23-10.74,25.84-13.45c-6.15,4.13-12,8.58-16.8,14.19c6.92-3.89,13.26-5.14,19.19-4.61
					c-10.68,5.43-20.33,11.83-28.42,19.72c5.5-2.56,10.5-4.07,15.13-4.79c-6.8,3.75-11.72,8.23-15.69,13.08
					c11.58-2.77,19.61-2.76,26.02-1.47c-16.78,4.92-33.24,10.68-48.54,19.53c19.08-4.12,36.79-7.24,50.2-7.19
					c-9.18,2.61-18.07,5.49-26.02,9.21c4.47,0.22,10.11-0.34,16.06-1.11c-10.74,3.47-20.88,7.21-29.16,11.79
					c12.63-0.76,22.74,0.03,31.19,1.84c-10.62,2.97-21.57,5.61-30.27,10.5c10.82-1.22,20.61-1.29,29.35-0.18
					c-20.03,6.34-38.66,13.26-55.74,20.82c14.29-3.62,28.83-6.58,44.48-6.63c-14.68,5.32-28.76,11.26-40.97,19.16
					c9.44-3.67,18.74-6.67,27.32-5.9c-12.4,5.85-23.4,12.46-32.85,19.9c9.57-3.23,18.94-5.47,28.12-6.86
					c10.93-13.33,23.66-25.76,38.26-36.94l0.18,62.65l-9.78-3.78c2.81,4.05,6.42,8.11,10.7,12.16c-8.59,0.39-18.54-0.48-29.35-2.3
					c5.7,4.45,15.77,7.4,28.61,9.4c-2.94,8.23-14.78,10.01-39.13,2.76c3.56,4.77,8.93,9.1,15.84,13.07
					c7.65-2.67,15.69-5.18,24.11-7.54l-0.37,58.04c-6.03-6.3-12.06-14.34-18.09-24.32c2.1,6.38,4.88,12.5,8.14,18.46
					c2.31,0.83,4.61,1.68,6.9,2.55l-1.11,129.9l-11.26-58.22l-7.75,62.83l-10.34-88.63l-0.92,67.62l-20.86-62.47l-1.43,8.98
					c20.01,54.73,39.63,109.68,55.93,166.47v83.28c-20.05-69.08-41.1-137.96-62.78-206.71l-0.49,3.05
					c3.08,11.65,4.93,22.98,5.16,33.92c-4.68-10.64-9.66-19.34-15.32-23.58c6.01,18.04,10.66,36.81,13.47,56.57
					c-7.7-19.16-15.8-37.35-23.99-55.28c7.29,25.96,13.94,52.13,19.75,78.58c-9.3-16.61-19.31-33.07-30.82-49.2
					c12.83,26.64,23.16,53.48,30.08,80.61c-4.54-11.01-11.4-21.48-20.12-31.51c7.72,15.64,13.32,31.46,18.09,47.35
					c-10.51-18.32-23.64-33.89-39.31-46.8c17.48,24.76,30.2,50.91,39.31,78.12l-31.19-32.98l22.52,48.27l-11.81-12.16
					c6.1,13.7,11.07,28.06,14.21,43.48c-7.75-7.37-14.12-14.65-23.25-22.11c5.91,12.1,10.02,24.2,13.47,36.3l-16.24-23.95
					c4.78,11.46,8.14,23.24,10.7,35.19c-11.46-15.04-24.53-28.69-39.68-40.54c0.86,9.16-0.43,17.49-2.77,25.43
					c0.1-12.19-0.66-23.99-2.77-35.19c-3.66,5.13-6.55,12-9.23,19.35c-1.48-20.94-2.4-41.89-1.66-62.83
					c-4.45,7.36-8.1,15.6-10.34,25.43c-2.13-23.41-1.93-46.3,0.37-68.73c-2.8-26.12-0.09-51.14,9.41-74.81l-0.39,0.49
					c-0.22,1.21-0.81,2.29-1.65,3.12c-0.48,0.48-1.05,0.87-1.68,1.16c-8.08,10.66-15.3,22.19-21.93,34.29
					c8.04-37.24,23.48-92.35,42.54-137.55l-4.08-14.88l-3,18.14l0.06-0.03l-0.14,0.53l-0.24,1.44l-0.18,0.07
					c-3.56,12.93-7.52,25.75-14.57,37.75l0.92-20.82c-3.5,11.32-7.88,20.02-12.37,28.37c1.75-9.78,2.06-18.84,1.85-27.64
					c-5.16,14.32-10.83,26.77-16.98,37.4c2.65-13.76,4.18-27.52,4.61-41.27l0.75-0.32l-2.8-21.29
					c-5.55,24.98-12.96,47.55-23.44,66.15l4.24-44.77l-13.66,22.11l1.11-79.78c7.45-1.33,14.89-2.62,22.34-3.81l5.09-23.27
					l-17.9,20.64l11.16-29.76l-20.31,24.96l-0.37-43.48l29.03,1.08l1.2-2.49l-28.2-12.23l10.7-4.79l-10.34-3.32l11.44-10.69
					l-12.55-2.58l-2.21-49.75l28.05,40.17l-3.69-28.01l26.58,38.83c7.61-0.89,15.36-1.67,19.43-5.38
					c-6.76-2.9-11.28-6.56-14.47-10.67l-12.08-9.32l7.53,1.31c-0.19-0.47-0.38-0.93-0.55-1.4l-0.23-1.09l-15.51-15.96l12.67,2.56
					L823.28,368.86z M297.32,495.29l-17.53-0.18c16.76-4.9,33.95-8.52,51.46-11.17c5.54-12.05,11.64-23.86,19.6-34.9
					c-11.81,11.49-25.1,21.13-37.65,31.69c3.54-11.55,11.93-22.97,24.82-34.27c-14.35,12.01-28.04,20.54-41.16,26.16
					c13.6-10.82,25.31-24,34.97-39.98c-14.33,13.72-28.67,26.46-43,34.27c15.6-15.57,28.98-36.11,43.46-54.17
					c-20.06,17.01-39.65,35.68-59.7,52.7c5.35-16.18,12.06-31.97,20.86-47.17c-13.63,10.44-25.86,22.97-36.91,37.22
					c3.13-10.27,7.02-20.38,13.1-30.03c-7.55,5.1-13.18,13.19-18.27,22.11c-2.86-9.89-1.08-17.93,6.28-23.77
					c-7.24,1.41-12.82,5.1-18.09,9.21c4.9-10.2,11.4-20.08,21.22-29.3c-9,3.89-16.9,9.2-24.18,15.29
					c-0.71-7.25,1.14-12.77,4.98-16.95c-3.92,0.53-7.03,1.5-9.6,2.76l-2.95-8.11c3.38-3.99,7.63-7.19,12.37-9.95l-10.52,4.97
					l-25.47-43.3c57.34-8.24,123.35,13.4,196.93,61.17c8-2.09,19.27-2.54,23.07-8.66c-10.16-0.06-19.56-0.55-27.5-1.84
					c7.02-2.85,12.39-6.16,16.7-9.75c-11.4,2.73-21.02,2.43-28.98-0.74c4.86-2.38,8.9-5.01,12.64-7.76
					c-7.16,0.72-13.45,2.17-19.01,4.24c1.45-3.61,4.03-6.65,7.94-9.03c-8.58-3.16-20.67-1.35-31.01-2.03
					c3.78-2.23,8.28-4.1,14.76-4.97c-11.23-1.61-22.55,2.3-33.96,1.11c6.57-4.15,11.7-8.62,16.06-13.27
					c-11.82,0.57-24.14,2.46-36.95,5.61c9.59-7.16,20.62-13.9,32.3-20.45c-13.35,3.22-26.66,7.08-40.01,12.63l3.32-5.9
					c-4.52,1.62-9.01,2.99-13.29,2.76c3.87-3.69,6.34-7.3,8.12-10.87c-7.81,2.23-15.63,4.71-23.44,8.29
					c4.5-5.61,11.25-10.55,19.93-14.92c-14.08,2.46-27.63,7-40.23,15.11c9.87-13.97,24.92-19.84,34.33-31.69
					c-17.29,2.86-34.39,22.48-51.31,23.22c9.46-6.56,16.69-12.91,21.22-18.98c-14.33,9.75-28.35,17.38-41.93,21.97
					c11.44-10.31,21.84-20.4,30.82-30.22c-17.5,11.8-38.13,20.01-61.78,24.94c4.76-2.78,7.25-6.65,11.84-9.46
					c10.9-6.65,22.91-12.36,28.03-19.84c-17.78,4.42-30.66,12.84-42.28,22.19l-2.77-10.69c14.19-16.84,32.63-28.12,58.14-30.22
					l-30.64-5.9c18.95-8.08,41.34-8.87,68.66,0.74c-6.89-5.14-15.4-10.06-27.96-14.46c18.65-3.35,37.48,1.6,56.38,10.04
					c-3.74-5.44-9.83-9.78-19.2-13.07c16.29-0.24,31.05,5.05,43.15,20.53c-1.69-7.51-6.43-14.18-12.55-20.46
					c28.08,8.6,38.11,22.56,45.44,37.33c1.16-2.18,1.55-4.82,1.48-7.74c9.95,8.53,19.09,17.39,26.58,26.9l52.41,110.18
					c8.95-9.57,17.87-19.66,26.58-32.43c1.72,2.7,2.8,5.68,5.17,8.11c-0.14-8.91,0.13-17.51,2.21-24.69
					c2.54,4.88,5.34,9.12,8.49,12.53c0.56-26.57,9.16-50.08,29.16-69.28c-1.36,7.29-1.88,13.58-1.85,19.16
					c7.59-17.1,17.02-30.93,30.27-37.96c-9.53,11.22-13.36,23.72-13.29,37.4c10.65-21.35,24.42-40.92,45.4-56.38
					c-2.61,4.74-4.77,9.57-6.28,14.56c8.36-4.23,17.6-7.43,28.05-9.21c-8.78,5.03-16.08,11.06-21.41,18.43
					c15.5-4.67,31.93-12.38,46.51-14c-12.67,6.16-22.03,13.25-30.27,20.64c12.6-5.52,30.63-10.64,42.73-10.23
					c-3.44,2.01-6.43,4.17-8.77,6.54c9.13,1.65,16.58,5.48,23.25,10.32c-11.44-1.24-22.89-1.71-34.33,0
					c8.38,6.18,15.98,12.61,22.15,19.53c-6.77-2.31-13.53-5.21-20.3-5.16c2.44,2.59,4.45,5.28,5.91,8.11c-8-4.18-16-7.9-23.99-11.1
					c7.44,5.16,14.09,10.68,19.93,16.58c-14.94-6.33-30.09-11.07-45.4-14.69l40.6,21.74c-12.8-1.61-26.33-6.63-39.5-9.95l22.15,12.53
					l-38.39-4.79c9.23,4.91,17.47,10.2,24.73,15.85c-13.26-3.44-24.64-5.28-35.44-6.63l25.1,14.74l-16.24-2.58l4.8,4.05l-13.66,2.95
					l-20.67-2.21l34.33,12.53l-16.61,0.74l2.95,5.16l-29.9,0.37l9.6,4.05c43.31-0.37,63.92-36.3,129.93-1.11l-9.23,21l-7.38-7
					l5.17,14.74l-4.06,8.11l-6.09-9.77l3.51,13.45l-5.91,16.58l-33.96-36.11l27.68,46.25l-40.42,86.6l14.76-39.61l-5.35-5.9
					l1.85,8.48l-14.03,38.69l-21.22-45.14l4.61,63.38l-29.16-79.97l5.54,59.88L531.16,515l0.55,28.37l-23.81-56.01l2.95,29.48
					l-20.49-30.77l2.58,23.58l-16.79-33.17l-2.99,11.79l32.89,42.93l-11.81-4.42l26.95,41.46l-11.44-7.37l16.06,37.22l-17.9-14.19
					l16.8,72.78l-13.66-26.16l2.77,46.25l-8.31-10.13l-10.34,40.17l2.21-12.16l-18.46,43.85l0.74-20.08l-25.84,62.09l-1.48-29.3
					l-13.29,36.11l0.92-44.41l-10.15,14.37l6.64-23.58l-6.27,6.45l21.96-50.67l-22.15,30.59l12-39.8l-19.75,23.22l17.16-37.77
					l-15.32,19.71l32.3-57.86l-31.19,42.93l13.47-36.48l-12.92,12.16l28.24-61.72c-10.99,15.31-20.75,31.43-30.27,47.72
					c5.9-17.93,11.14-35.87,14.58-53.8c-6.02,5.44-10.53,11.63-14.58,18.06c1.53-11.23,4.37-22.37,9.6-33.35
					c-4.43,2.97-8.79,6.67-13.1,10.87c8.31-15.93,18.32-30.81,28.61-45.51c-8.28,8.5-16.27,17.97-23.81,28.93l3.84-22.14
					c-24.16,49.74-42.31,104.98-57.92,162.54l-19.93-44.04c10.8-32.03,23.19-63.71,37.09-95.07c-3.62-14.86-4.78-32.83-9.59-45.7
					c1.61,32.4-1.49,58.25-13.66,71.49c1.79-15.11,3.01-30.22,3.32-45.33c-2.89,18.7-8.92,32.77-16.98,43.85
					c2.72-18.01,4.6-36.1,4.61-54.35c-7.8,27.2-16.44,52.77-27.68,73.33c1.22-13.99,2.84-28.08,6.28-42.56
					c-5.06,9.22-10.32,16.82-15.87,22.11c1.35-13.02,3.57-25.67,6.64-37.96c-4.29,6.84-7.83,14.29-10.89,22.11l-37.1-66.51
					L297.32,495.29z"/>
			</defs>
			<clipPath id="SVGID_00000146464215317491820020000014481375109191608481_">
				<use href="#SVGID_00000122704873521486342860000002080059073053784222_" style="overflow:visible"/>
			</clipPath>
			<defs>
				<filter id="SYScycle_OpacityMaskFilter" filterUnits="userSpaceOnUse" x="188.99" y="267.42" width="795.56" height="580.83">
					<feColorMatrix type="matrix" values="1 0 0 0 0 0 1 0 0 0 0 0 1 0 0 0 0 0 1 0"/>
				</filter>
			</defs>

			<mask maskUnits="userSpaceOnUse" x="188.99" y="267.42" width="795.56" height="580.83" id="SVGID_00000044169190173407896770000000297894668523814797_">
				<g class="st6">

					<linearGradient id="SVGID_00000161620968916400850390000017172889088449934005_" gradientUnits="userSpaceOnUse" x1="397.7793" y1="734.7483" x2="397.7793" y2="1088.5183" gradientTransform="matrix(1 0 0 1 188.9878 -285.6101)">
						<stop offset="0" stop-color=
						"#FFFFFF"/>
						<stop offset="1" stop-color="#000000"/>
					</linearGradient>

					<rect x="188.99" y="267.74" clip-path="url(#SVGID_00000146464215317491820020000014481375109191608481_)" fill="url(#SVGID_00000161620968916400850390000017172889088449934005_)" width="795.56" height="580.51"/>
				</g>
			</mask>

			<linearGradient id="SVGID_00000173148740979703771720000006302377147056535988_" gradientUnits="userSpaceOnUse" x1="586.7671" y1="267.4219" x2="586.7671" y2="848.2482">
				<stop offset="0" stop-color="#2E49BF"/>
				<stop offset="0.49" stop-color="#C045B6"/>
				<stop offset="1" stop-color="#DF7B4D"/>
			</linearGradient>

			<rect x="188.99" y="267.42" clip-path="url(#SVGID_00000146464215317491820020000014481375109191608481_)" mask="url(#SVGID_00000044169190173407896770000000297894668523814797_)" fill="url(#SVGID_00000173148740979703771720000006302377147056535988_)" width="795.56" height="580.83"/>
		</g>
		<g clip-path="url(#SVGID_00000177448512015924478780000011523092377029609132_)">
			<defs>
				<path id="SVGID_00000006669470885707088450000013607242582072248738_" d="M619.73,520.19L450.9,869.86
					C351.08,663.1,251.25,456.34,151.42,249.58h218.11L450.9,415l81.38-165.41h218.11L619.73,520.19z M450.9,847.31l283.85-587.9
					H538.37L450.9,437.2l-87.47-177.79H167.05L450.9,847.31z"/>
			</defs>
			<clipPath id="SVGID_00000049944283279954900300000010030332519517895337_">
				<use href="#SVGID_00000006669470885707088450000013607242582072248738_" style="overflow:visible"/>
			</clipPath>

			<linearGradient id="SVGID_00000121987928092362877180000018327814784073027466_" gradientUnits="userSpaceOnUse" x1="450.9022" y1="249.5812" x2="450.9022" y2="869.8578">
				<stop offset="0" stop-color="#FFBC24"/>
				<stop offset="0.29" stop-color="#FF49B9"/>
				<stop offset="0.75" stop-color="#BC0082"/>
				<stop offset="0.94" stop-color="#8B0179"/>
				<stop offset="1" stop-color="#6D016D"/>
			</linearGradient>

			<rect x="151.42" y="249.58" clip-path="url(#SVGID_00000049944283279954900300000010030332519517895337_)" fill="url(#SVGID_00000121987928092362877180000018327814784073027466_)" width="598.97" height="620.28"/>
		</g>
		<g clip-path="url(#SVGID_00000177448512015924478780000011523092377029609132_)">
			<defs>
				<path id="SVGID_00000024723624513170003960000003960471103238495907_" d="M978.62,259.41H781.86v615.42h196.76V259.41z
					M776.95,249.58h211.5v635.08H772.03V249.58H776.95z"/>
			</defs>
			<clipPath id="SVGID_00000035530833880299567530000004607031843000212136_">
				<use href="#SVGID_00000024723624513170003960000003960471103238495907_" style="overflow:visible"/>
			</clipPath>

			<linearGradient id="SVGID_00000082332273466005478320000001384232696285075873_" gradientUnits="userSpaceOnUse" x1="880.2382" y1="249.5812" x2="880.2382" y2="884.6589">
				<stop offset="0" stop-color="#FFBC24"/>
				<stop offset="0.29" stop-color="#FF49B9"/>
				<stop offset="0.75" stop-color="#BC0082"/>
				<stop offset="0.94" stop-color="#8B0179"/>
				<stop offset="1" stop-color="#6D016D"/>
			</linearGradient>

			<rect x="772.03" y="249.58" clip-path="url(#SVGID_00000035530833880299567530000004607031843000212136_)" fill="url(#SVGID_00000082332273466005478320000001384232696285075873_)" width="216.41" height="635.08"/>
		</g>
	</g>
</svg>