<svg id="vector" xmlns="http://www.w3.org/2000/svg" version="1.1" style="shape-rendering:geometricPrecision; text-rendering:geometricPrecision; image-rendering:optimizeQuality; fill-rule:evenodd; clip-rule:evenodd" xmlns:xlink="http://www.w3.org/1999/xlink" viewBox="0 0 3000 1749">

	<style>

		#a1 {
			animation: a1Anim 2s;
			animation-delay: 1s;
			animation-iteration-count: infinite;
		}
@keyframes a1Anim {
			0% {
				transform: translate(0px,0px);
			}
			25% {
				fill: #336699;
			}
			100% {
				transform: translate(0px,0px);
			}
		}


		#a2 {
			animation: a2Anim 2s;
			animation-delay: 1.1s;
			animation-iteration-count: infinite;
		}
@keyframes a2Anim {
			0% {
				transform: translate(0px,0px);
			}
			25% {
				fill: #336699;
			}
			100% {
				transform: translate(0px,0px);
			}
		}


		#a3 {
			animation: a3Anim 2s;
			animation-delay: 1.2s;
			animation-iteration-count: infinite;
		}
@keyframes a3Anim {
			0% {
				transform: translate(0px,0px);
			}
			25% {
				fill: #336699;
			}
			100% {
				transform: translate(0px,0px);
			}
		}


		#a4 {
			animation: a4Anim 2s;
			animation-delay: 1.3s;
			animation-iteration-count: infinite;
		}
@keyframes a4Anim {
			0% {
				transform: translate(0px,0px);
			}
			25% {
				fill: #336699;
			}
			100% {
				transform: translate(0px,0px);
			}
		}


		#a5 {
			animation: a5Anim 2s;
			animation-delay: 1.2s;
			animation-iteration-count: infinite;
		}
@keyframes a5Anim {
			0% {
				transform: translate(0px,0px);
			}
			25% {;
				fill: #336699;
			}
			100% {
				transform: translate(0px,0px);
			}
		}


		#a6 {
			animation: a6Anim 2s;
			animation-delay: 1.5s;
			animation-iteration-count: infinite;
		}
@keyframes a6Anim {
			0% {
				transform: translate(0px,0px);
			}
			25% {
				fill: #336699;
			}
			100% {
				transform: translate(0px,0px);
			}
		}


		#a7 {
			animation: a7Anim 2s;
			animation-delay: 1.6s;
			animation-iteration-count: infinite;
		}
@keyframes a7Anim {
			0% {
				transform: translate(0px,0px);
			}
			25% {
				fill: #336699;
			}
			100% {
				transform: translate(0px,0px);
			}
		}


		#a8 {
			animation: a8Anim 2s;
			animation-delay: 1.7s;
			animation-iteration-count: infinite;
		}
@keyframes a8Anim {
			0% {
				transform: translate(0px,0px);
			}
			25% {
				fill: #336699;
			}
			100% {
				transform: translate(0px,0px);
			}
		}


		#ballWhite,#ballBlue {
			animation: ballAnim 2s linear 15s;
			animation-iteration-count: infinite;
			animation-delay: 1.9s;
		}
@keyframes ballAnim {
			0% {
				transform: translate(0px,0px);
			}
			5% {
				transform: translate(-20px,40px);
			}
			10% {
				transform: translate(-80px,120px);
			}
			15% {
				transform: translate(-120px,160px);
			}
			20% {
				transform: translate(-120px,200px);
			}
			25% {
				transform: translate(-130px,290px);
			}
			30% {
				transform: translate(-140px,370px);
			}
			35% {
				transform: translate(-100px,480px);
			}
			40% {
				transform: translate(-70px,500px);
			}
			45% {
				transform: translate(-50px,530px);
			}
			50% {
				transform: translate(-30px,540px);
			}
			55% {
				transform: translate(-20px,550px);
			}
			60% {
				transform: translate(-10px,560px);
			}
			65% {
				transform: translate(1px,575px);
			}
			70% {
				transform: translate(90px,590px);
			}
			75% {
				transform: translate(150px,630px);
			}
			80% {
				transform: translate(190px,650px);
			}
			85% {
				transform: translate(230px,670px);
			}
			90% {
				transform: translate(300px,700px);
			}
			95% {
				transform: translate(380px,725px);
			}

			100% {
				transform: translate(0px,0px);
			}
		}
		#fortnite{
			width: 0px;
			animation: fortniteAnim 2.5s linear 15s infinite;
			animation-delay: 2.1s;
		}
		@keyframes fortniteAnim{
			0%{
				transform: translate(1690px,200px);
			}
			50%{
				width: 1000px;
			}
			100%{
				transform: translate(1690px,200px);
			}
		}
	</style>
	

	<!--image id="fortnite" style="transform: translate(1690px,200px);" xlink:href="fortnite.svg" width="1000px"/-->

	<!--ballWhite-->
	<g><path id="ballWhite" style="opacity:1" fill="#fefefe" d="M 1908.5,229.5 C 1907.47,229.103 1907.31,228.437 1908,227.5C 1915.23,218.94 1921.23,209.607 1926,199.5C 1943.6,148.057 1933.1,103.89 1894.5,67C 1888.58,63.4975 1882.92,59.4975 1877.5,55C 1871.4,52 1863.5,49 1856.5,46C 1846.26,44.0242 1835.93,42.8576 1825.5,42.5C 1815.07,42.8198 1804.74,43.9865 1794.5,46C 1789.05,48.709 1783.39,51.0424 1777.5,53C 1774.05,54.9479 1770.71,57.1146 1767.5,59.5C 1766.82,59.1373 1766.15,58.8039 1765.5,58.5C 1770.46,51.9551 1776.62,46.6218 1784,42.5C 1806.47,29.8072 1830.64,25.3072 1856.5,29C 1863.01,30.0867 1869.51,31.2534 1876,32.5C 1911.41,46.4297 1934.91,71.5963 1946.5,108C 1951.4,130.333 1951.4,152.667 1946.5,175C 1939.39,195.942 1928.05,213.942 1912.5,229C 1911.21,229.49 1909.87,229.657 1908.5,229.5 Z" /></g>


	<!--ballBlue-->
	<g><path id="ballBlue" style="opacity:0.995" fill="#336699" d="M 1908.5,229.5 C 1908.46,231.483 1908.13,231.583 1907.5,232.5C 1872.23,267.666 1831.46,277 1782.5,261.4C 1772.85,256.058 1763.85,250.724 1755.5,244.5C 1750.61,238.694 1745.27,233.36 1739.5,228.5C 1735.09,221.806 1730.76,214.972 1726.5,208C 1715.79,184.211 1712.46,159.378 1716.5,133.5C 1722.44,101.655 1738.77,76.6552 1765.5,58.5C 1766.15,58.8039 1766.82,59.1373 1767.5,59.5C 1770.71,57.1146 1774.05,54.9479 1777.5,53C 1783.39,51.0424 1789.05,48.709 1794.5,46C 1804.74,43.9865 1815.07,42.8198 1825.5,42.5C 1835.93,42.8576 1846.26,44.0242 1856.5,46C 1863.5,49 1871.4,52 1877.5,55C 1882.92,59.4975 1888.58,63.4975 1894.5,67C 1933.1,103.89 1943.6,148.057 1926,199.5C 1921.23,209.607 1915.23,218.94 1908,227.5C 1907.31,228.437 1907.47,229.103 1908.5,229.5 Z" /></g>



	<g><path style="opacity:1" fill="#fefefe" d="M 2367.5,1016.5 C 2364.75,1016.27 2362.08,1016.61 2359.5,1017.5C 2289.5,1007.04 2219.5,996.537 2149.5,986C 2088.68,973.905 2028.35,959.905 1968.5,944C 1901.5,926.446 1836.83,902.78 1774.5,873C 1706.4,837.351 1644.23,793.184 1588,741.4C 1549.31,696.446 1523.31,645.779 1510,588.5C 1501.43,554.39 1496.43,519.723 1495,484.5C 1489.36,400.86 1497.7,318.86 1520,238.5C 1525.54,221.413 1531.2,202.513 1537,184.5C 1539.29,180.226 1541.79,176.226 1544.5,172.5C 1546.34,171.418 1548.34,171.485 1551.4,170C 1557.72,161.413 1566.05,154.246 1575.5,148.5C 1576.45,146.545 1577.79,144.878 1579.5,143.5C 1585.68,139.676 1591.68,135.676 1597.5,131.5C 1603.64,125.758 1610.98,122.092 1619.5,121.4C 1620.1,125.826 1618.43,130.159 1614.5,133.5C 1557.64,268.858 1541.64,409.192 1566.5,554.5C 1571.95,579.313 1578.95,603.647 1587.5,627.5C 1599.26,654.934 1613.59,680.601 1631.4,704.5C 1633.38,705.915 1635.05,708.249 1635.5,711.5C 1638.2,712.568 1639.7,714.568 1640,717.5C 1652.85,730.354 1666.02,742.854 1679.5,755C 1680.94,755.219 1682.27,755.719 1683.5,756.5C 1685.5,758.833 1687.5,761.167 1689.5,763.5C 1690.73,764.281 1692.06,764.781 1693.5,765C 1696.8,769.017 1700.47,772.517 1704.5,775.5C 1707.75,775.953 1710.08,777.619 1711.5,781.4C 1717.1,784.976 1723.1,788.976 1729.5,792.5C 1730.41,793.328 1731.08,794.328 1731.5,795.5C 1738.02,798.364 1743.69,802.364 1748.5,807.5C 1753.17,810.167 1757.83,812.833 1762.5,815.5C 1763.89,817.953 1766.06,819.286 1769,819.5C 1775.46,824.473 1782.29,828.806 1789.5,832.5C 1789.83,833.167 1790.17,833.833 1791.4,834.5C 1801.46,839.798 1812.29,845.464 1823,851.5C 1824.67,852.833 1826.33,854.167 1828,855.5C 1840.22,860.348 1852.06,866.014 1863.5,872.5C 1913.05,893.849 1963.88,911.849 2016,926.5C 2066.41,939.188 2116.91,951.521 2167.5,963.5C 2248.68,978.074 2330.18,990.741 2412,1001.5C 2428.26,1004.25 2444.43,1007.25 2461.4,1011.4C 2461.4,1011.5 2461.4,1012.5 2461.4,1013.5C 2429.54,1015.28 2398.54,1016.28 2367.5,1016.5 Z" /></g>



	<g><path style="opacity:0.998" fill="#336699" d="M 1544.5,172.5 C 1541.79,176.226 1539.29,180.226 1537,184.5C 1531.2,202.513 1525.54,221.413 1520,238.5C 1497.7,318.86 1489.36,400.86 1495,484.5C 1496.43,519.723 1501.43,554.39 1510,588.5C 1523.31,645.779 1549.31,696.446 1588,741.4C 1644.23,793.184 1706.4,837.351 1774.5,873C 1836.83,902.78 1901.5,926.446 1968.5,944C 2028.35,959.905 2088.68,973.905 2149.5,986C 2219.5,996.537 2289.5,1007.04 2359.5,1017.5C 2362.08,1016.61 2364.75,1016.27 2367.5,1016.5C 2379.02,1017.32 2390.35,1019.32 2401.5,1022.5C 2401.5,1023.5 2401.5,1024.5 2401.5,1025.5C 2357.55,1026.95 2313.55,1028.78 2269.5,1031C 2241.46,1032.29 2213.46,1034.29 2185.5,1037C 2132.17,1039.49 2078.84,1041.82 2025.5,1044C 2002.22,1045.59 1978.89,1047.25 1955.5,1049C 1931.5,1049.83 1907.5,1051.4 1883.5,1051C 1868.92,1052.03 1854.25,1053.03 1839.5,1054C 1796.42,1054.53 1753.42,1055.53 1711.4,1057C 1493.35,1058.41 1276.35,1057.41 1059.5,1054C 1004.04,1051.28 948.372,1049.62 892.5,1049C 845.23,1047.03 798.063,1044.86 751,1042.5C 723.71,1039.96 696.543,1036.46 669.5,1032C 663.09,1029.81 656.756,1027.31 651.4,1024.5C 646.224,1021.27 642.391,1017.6 639,1013.5C 633.941,1001.71 628.607,990.047 623,978.5C 621.113,969.842 619.447,961.176 618,952.5C 617.333,917.5 617.333,882.5 618,847.5C 621.432,837.436 622.199,827.103 623,816.5C 625.882,807.036 628.216,797.369 630,787.5C 636.833,769.009 644.833,751.009 654,733.5C 661.421,728.962 666.688,724.129 672.5,719C 682.978,715.36 693.645,713.694 704.5,714C 708.876,714.976 713.21,716.142 717.5,717.5C 717.414,718.496 717.748,719.329 718.5,720C 742.525,725.762 763.025,737.595 780,755.5C 788.544,766.928 795.211,779.261 800,792.5C 804.035,806.386 807.535,820.386 811.4,834.5C 811.833,834.5 813.167,834.5 814.5,834.5C 818.725,800.085 822.392,765.585 825.5,731C 825.079,729.011 824.412,727.177 823.5,725.5C 829.812,645.087 836.645,564.754 844,484.5C 850.416,430.705 857.082,377.038 864,323.5C 868.04,301.205 872.374,278.872 877,256.5C 878.35,247.875 879.35,239.208 880,231.4C 881.682,227.971 883.182,225.304 884.5,222.5C 886.824,220.633 889.491,219.633 892.5,219.5C 906.826,218.753 921.159,218.919 935.5,220C 936.244,221.039 937.244,221.539 938.5,221.5C 938.881,222.931 939.881,223.764 941.5,224C 995.417,229.239 1048.75,237.905 1101.5,250C 1138.05,259.378 1174.72,268.378 1211.5,277C 1244.98,285.528 1277.64,296.195 1309.5,309C 1319.48,314.3 1329.48,319.633 1339.5,325C 1342.51,325.332 1345.34,326.166 1348,327.5C 1363.09,323.238 1373.59,313.904 1379.5,299.5C 1386.05,290.435 1393.22,281.768 1401,273.5C 1411.3,262.196 1421.97,251.196 1433,241.4C 1436.02,235.801 1439.52,231.467 1443.5,227.5C 1467.58,202.415 1492.92,178.748 1519.5,156.5C 1530.26,148.085 1541.6,140.418 1553.5,133.5C 1559.04,131.068 1561.21,132.735 1560,138.5C 1553.94,149.4 1548.77,160.734 1544.5,172.5 Z" /></g>



	<g><path style="opacity:1" fill="#fefefe" d="M 1379.5,299.5 C 1373.59,313.904 1363.09,323.238 1348,327.5C 1345.34,326.166 1342.51,325.332 1339.5,325C 1329.48,319.633 1319.48,314.3 1309.5,309C 1277.64,296.195 1244.98,285.528 1211.5,277C 1174.72,268.378 1138.05,259.378 1101.5,250C 1048.75,237.905 995.417,229.239 941.5,224C 939.881,223.764 938.881,222.931 938.5,221.5C 939.752,218.209 941.085,214.876 942.5,211.5C 943.216,210.689 944.05,210.022 945,209.5C 951.113,208.216 957.279,207.216 963.5,206.5C 1004.71,209.417 1045.71,214.084 1086.5,221.4C 1102.23,223.143 1117.9,226.143 1133.5,229.5C 1178.42,241.436 1223.42,251.202 1268.5,261.5C 1293.04,268.737 1317.54,276.071 1342,283.5C 1354.71,288.444 1367.21,293.777 1379.5,299.5 Z" /></g>



	<g><path style="opacity:1" fill="#fefefe" d="M 823.5,725.5 C 824.412,727.177 825.079,729.011 825.5,731C 822.392,765.585 818.725,800.085 814.5,834.5C 813.167,834.5 811.833,834.5 811.4,834.5C 807.535,820.386 804.035,806.386 800,792.5C 795.211,779.261 788.544,766.928 780,755.5C 763.025,737.595 742.525,725.762 718.5,720C 717.748,719.329 717.414,718.496 717.5,717.5C 722.7,714.092 727.7,710.426 732.5,706.5C 740.147,703.963 747.98,702.297 756,701.5C 781.459,704.062 803.059,712.062 823.5,725.5 Z" /></g>


	<!--a1-->
	<g><path id="a1" style="opacity:1" fill="#fefefe" d="M 493.5,1354.5 C 527.927,1353.14 559.927,1360.98 589.5,1378C 601.186,1386.13 606.019,1397.29 604,1411.5C 596.631,1428.58 588.297,1445.25 579,1461.5C 578.261,1462.57 577.261,1463.24 576,1463.5C 570.086,1462.11 564.419,1460.11 559,1457.5C 558.667,1442.5 558.333,1427.5 558,1412.5C 554.224,1401.06 546.891,1392.72 536,1387.5C 519.306,1380.79 502.139,1379.29 484.5,1383C 462.539,1394.09 453.705,1411.92 458,1436.5C 463.727,1455.23 475.56,1468.73 493.5,1477C 515.847,1488.45 538.013,1500.29 560,1512.5C 598.637,1537.32 613.304,1572.32 604,1617.5C 599.99,1628.93 593.824,1639.1 585.5,1648C 559.581,1668.31 530.081,1677.47 497,1675.5C 466.112,1675.87 437.279,1668.7 411.4,1654C 393.974,1642.38 389.974,1627.38 398.5,1609C 405.434,1595.3 412.434,1581.8 419.5,1568.5C 426.378,1568.47 432.712,1570.13 438.5,1573.5C 439.333,1587.15 439.833,1600.82 440,1614.5C 441.98,1624.11 446.813,1632.11 454.5,1638.5C 463.082,1644.41 472.415,1648.24 482.5,1650C 506.366,1655.09 526.366,1648.93 542.5,1631.5C 553.67,1614.79 553.004,1598.46 541.4,1582.5C 536.044,1577.31 530.877,1572.97 525,1569.5C 501.715,1556.54 478.215,1544.04 454.5,1532C 441.435,1523.87 428.202,1513.71 417.5,1501.5C 407.515,1488.46 401.349,1473.79 399,1457.5C 395.01,1413.78 412.51,1382.45 451.5,1363.5C 465.207,1358.57 479.207,1355.57 493.5,1354.5 Z" /></g>


	<!--a3-->
	<g><path id="a3" style="opacity:1" fill="#fefffe" d="M 1002.5,1354.5 C 1036.93,1353.14 1068.93,1360.98 1098.5,1378C 1114.18,1390.25 1117.51,1405.25 1108.5,1423C 1102.13,1435.57 1095.63,1448.07 1089,1461.4C 1087.94,1461.9 1086.61,1462.9 1085,1463.5C 1079.16,1461.87 1073.49,1459.87 1068,1457.5C 1067.67,1442.5 1067.33,1427.5 1067,1412.5C 1063.22,1401.06 1055.89,1392.72 1045,1387.5C 1028.31,1380.79 1011.14,1379.29 993.5,1383C 975.822,1391.19 966.822,1405.02 966.5,1424.5C 966.198,1440.75 972.198,1454.25 984.5,1465C 990.182,1469.45 996.182,1473.45 1002.5,1477C 1019.59,1485.48 1036.59,1494.14 1053.5,1503C 1070.88,1512.43 1086.04,1524.6 1099,1539.5C 1120.2,1571.19 1121.7,1603.86 1103.5,1637.5C 1100.4,1642.1 1096.73,1646.27 1092.5,1650C 1066.77,1668.61 1037.93,1677.11 1006,1675.5C 975.112,1675.87 946.279,1668.7 919.5,1654C 902.472,1642.44 898.472,1627.44 907.5,1609C 914.434,1595.3 921.434,1581.8 928.5,1568.5C 935.327,1568.46 941.661,1570.12 947.5,1573.5C 948.333,1587.15 948.833,1600.82 949,1614.5C 950.98,1624.11 955.813,1632.11 963.5,1638.5C 972.015,1644.39 981.349,1648.23 991.5,1650C 1015.35,1655.1 1035.35,1648.93 1051.5,1631.5C 1063.07,1613.17 1061.57,1595.84 1047,1579.5C 1040.44,1574.28 1033.61,1569.44 1026.5,1565C 1005.62,1553.62 984.617,1542.62 963.5,1532C 949.535,1523.87 937.202,1513.71 926.5,1501.5C 907.216,1473.72 902.716,1443.72 913,1411.5C 927.461,1379.33 952.294,1360.83 987.5,1356C 992.684,1355.83 997.684,1355.33 1002.5,1354.5 Z" /></g>


	<!--a4-->
	<g><path id="a4" style="opacity:1" fill="#fefffe" d="M 1419.5,1354.5 C 1453.47,1353.6 1485.14,1361.43 1514.5,1378C 1530.16,1389.21 1533.99,1403.71 1526,1421.5C 1516.89,1438.33 1508.05,1455.33 1499.5,1472.5C 1498.33,1472.83 1497.17,1473.17 1496,1473.5C 1491.46,1472.53 1485.39,1470.87 1481.4,1468.5C 1480.17,1466.83 1479.83,1465.17 1479.5,1463.5C 1481.53,1450.14 1483.2,1436.81 1484.5,1423.5C 1484.35,1418.04 1483.52,1412.71 1482,1407.5C 1468.4,1388.39 1449.73,1379.39 1426,1381.4C 1413.59,1380.79 1402.42,1384.63 1392.5,1392C 1379.82,1403.94 1370.65,1418.1 1365,1434.5C 1347.59,1488.65 1348.43,1542.32 1367.5,1595.5C 1388.51,1641.23 1422.34,1654.23 1469,1634.5C 1488.21,1624.46 1503.37,1610.13 1514.5,1591.5C 1516.76,1590.35 1519.1,1590.19 1521.5,1591C 1524.69,1593.69 1528.03,1596.19 1531.5,1598.5C 1535.3,1602.42 1535.3,1606.42 1531.5,1611.4C 1516,1634.66 1495.67,1653.66 1471.4,1667.5C 1461.14,1671.24 1451.48,1673.74 1441.5,1675C 1384.64,1682.2 1340.14,1662.37 1308,1615.5C 1296.36,1596.6 1288.53,1576.27 1284.5,1554.5C 1283.31,1541.05 1281.98,1527.72 1281.4,1514.5C 1282.14,1501.88 1283.31,1489.22 1284,1476.5C 1291,1438.8 1308.83,1407.3 1337.5,1382C 1350.09,1373.78 1363.42,1366.78 1377.5,1361C 1391.58,1358.1 1405.58,1355.94 1419.5,1354.5 Z" /></g>


	<!--a6-->
	<g><path id="a6" style="opacity:1" fill="#fefffe" d="M 1963.5,1354.5 C 1996.98,1353.57 2028.31,1361.07 2057.5,1377C 2071.06,1385.09 2076.56,1396.92 2074,1412.5C 2064.43,1431.78 2054.76,1451.11 2045,1471.4C 2044.08,1472.31 2042.58,1473.31 2041.4,1473.5C 2035.15,1471.83 2029.82,1470.17 2024.5,1468.5C 2024.17,1466.83 2023.83,1465.17 2023.5,1463.5C 2027.58,1446.82 2029.08,1429.82 2028,1412.5C 2026.04,1407.16 2023.54,1402.16 2021.4,1397.5C 2019.45,1397.65 2018.45,1397.48 2017.5,1397C 2004.49,1384.83 1988.99,1379.33 1971,1381.4C 1949.39,1381.58 1932.89,1391.24 1921.5,1409.5C 1916.48,1418.35 1912.14,1427.52 1908.5,1437C 1895.95,1480.83 1894.29,1525.16 1903.5,1570C 1906.23,1579.96 1909.57,1589.63 1913.5,1599C 1931.07,1636.6 1960.07,1650.1 2001.4,1639.5C 2018.89,1632.77 2034.56,1622.1 2047.5,1607.5C 2051.52,1600.83 2056.52,1595.16 2062.5,1591.4C 2068.32,1592.97 2073.65,1596.3 2078.5,1601.4C 2079.63,1602.07 2079.8,1603.74 2079,1605.5C 2065.07,1628.6 2046.9,1647.6 2024.5,1662.5C 2006.2,1671.9 1986.7,1676.23 1966,1675.5C 1919.43,1676.52 1882.77,1658.19 1856,1621.4C 1847.15,1607.8 1840.15,1594.13 1835,1579.5C 1833.92,1573.6 1832.25,1567.93 1830,1562.5C 1827.56,1546.56 1825.73,1531.46 1824.5,1514.5C 1825.63,1498.73 1827.63,1483.06 1831.4,1467.5C 1838.11,1434.6 1854.44,1406.93 1879.5,1384.5C 1904.18,1365 1932.18,1355 1963.5,1354.5 Z" /></g>


	<!--a2-->
	<g><path id="a2" style="opacity:1" fill="#fefffe" d="M 624.5,1361.4 C 653.169,1360.33 681.835,1361.4 711.4,1361C 711.416,1361.37 712.25,1361.87 713,1362.5C 734.726,1416.4 756.559,1470.4 778.5,1524.5C 780.272,1519.9 781.772,1515.24 783,1511.4C 793.383,1460.49 804.717,1410.82 817,1361.5C 839.094,1360.34 861.261,1360.17 883.5,1361C 885,1361.83 886.167,1363 887,1364.5C 887.667,1370.17 887.667,1375.83 887,1381.5C 879.921,1382.48 872.755,1382.81 865.5,1382.5C 841.493,1441.64 817.327,1500.64 793,1559.5C 792.5,1588.83 792.333,1618.16 792.5,1647.5C 806.504,1647.33 821.404,1647.5 834.5,1648C 835.833,1655 835.833,1662 834.5,1669C 782.833,1669.67 731.167,1669.67 679.5,1669C 678.167,1662 678.167,1655 679.5,1648C 693.829,1647.5 708.163,1647.33 722.5,1647.5C 722.667,1617.83 722.5,1588.16 722,1558.5C 695.924,1500.33 669.757,1442 643.5,1383.5C 636.532,1382.5 629.532,1382.17 622.5,1382.5C 622.334,1375.83 622.5,1369.16 623,1362.5C 623.717,1361.96 624.217,1361.29 624.5,1361.4 Z" /></g>


	<!--a5-->
	<g><path id="a5" style="opacity:1" fill="#fefffe" d="M 1544.5,1361.4 C 1573.5,1360.33 1602.5,1361.4 1631.5,1361C 1632.33,1361.83 1633.17,1362.67 1634,1363.5C 1655.68,1417.24 1677.52,1470.91 1699.5,1524.5C 1708.9,1483.87 1718.06,1443.21 1727,1402.5C 1730.75,1388.83 1734.41,1375.16 1738,1361.5C 1760.09,1360.34 1782.26,1360.17 1804.5,1361C 1805.33,1361.83 1806.17,1362.67 1807,1363.5C 1807.67,1369.5 1807.67,1375.5 1807,1381.5C 1799.92,1382.48 1792.75,1382.81 1785.5,1382.5C 1762.34,1440.81 1738.51,1498.81 1714,1556.5C 1713.5,1586.83 1713.33,1617.16 1713.5,1647.5C 1727.17,1647.33 1740.84,1647.5 1754.5,1648C 1755.48,1655.08 1755.81,1662.25 1755.5,1669.5C 1703.5,1669.67 1651.5,1669.5 1599.5,1669C 1598.18,1662.2 1598.18,1655.36 1599.5,1648.5C 1613.82,1647.5 1628.15,1647.17 1642.5,1647.5C 1642.82,1617.14 1642.48,1586.81 1641.5,1556.5C 1615.57,1498.56 1589.57,1440.72 1563.5,1383C 1556.84,1382.5 1550.17,1382.33 1543.5,1382.5C 1543.2,1375.08 1543.54,1367.75 1544.5,1361.4 Z" /></g>


	<!--a7-->
	<g><path id="a7" style="opacity:1" fill="#fefffe" d="M 2117.5,1361.4 C 2156.83,1360.33 2196.17,1361.4 2235.5,1361C 2237.44,1367.89 2238.11,1375.05 2237.5,1382.5C 2229.17,1382.5 2220.83,1382.5 2212.5,1382.5C 2212.5,1470.83 2212.5,1559.17 2212.5,1647.5C 2227.84,1647.67 2243.17,1647.5 2258.5,1647C 2271.96,1647.04 2281.8,1641.21 2288,1629.5C 2292.45,1612.37 2296.28,1595.04 2299.5,1577.5C 2306.62,1575.58 2313.96,1574.92 2321.5,1575.5C 2324.68,1600.87 2328.68,1626.04 2333.5,1651C 2333.32,1659.55 2329.32,1665.38 2321.5,1668.5C 2253.17,1669.5 2184.84,1669.83 2116.5,1669.5C 2116.5,1662.17 2116.5,1654.83 2116.5,1647.5C 2124.83,1647.5 2133.17,1647.5 2141.5,1647.5C 2141.5,1559.17 2141.5,1470.83 2141.5,1382.5C 2133.17,1382.5 2124.83,1382.5 2116.5,1382.5C 2116.2,1375.08 2116.54,1367.75 2117.5,1361.4 Z" /></g>


	<!--a8-->
	<g><path id="a8" style="opacity:1" fill="#fefffe" d="M 2363.5,1361.4 C 2428.17,1360.33 2492.83,1361.4 2557.5,1361C 2564.71,1361.08 2570.88,1363.58 2576,1368.5C 2578.18,1372.38 2579.34,1376.54 2579.5,1381C 2575.72,1406.3 2571.72,1431.46 2567.5,1456.5C 2561.4,1456.5 2553.5,1456.5 2546.5,1456.5C 2543.04,1439.97 2539.54,1423.3 2536,1406.5C 2533.35,1399.22 2528.85,1393.22 2522.5,1388.5C 2518.41,1387.44 2514.41,1386.27 2511.4,1385C 2493.34,1383.08 2476,1382.24 2458.5,1382.5C 2458.5,1430.83 2458.5,1479.17 2458.5,1527.5C 2491.17,1527.33 2523.84,1527.5 2556.5,1528C 2557.83,1535.67 2557.83,1543.33 2556.5,1551C 2523.84,1551.5 2491.17,1551.67 2458.5,1551.5C 2458.5,1583.5 2458.5,1615.5 2458.5,1647.5C 2476.84,1647.67 2495.17,1647.5 2513.5,1647C 2521.46,1646.34 2528.79,1643.84 2535.5,1639.5C 2539.39,1635.45 2542.22,1630.78 2544,1625.5C 2547.67,1609.84 2551.17,1594.17 2554.5,1578.5C 2561.75,1578.19 2568.92,1578.52 2576,1579.5C 2578.01,1592.06 2580.34,1604.4 2583,1616.5C 2584.07,1628.16 2585.57,1639.66 2587.5,1651C 2588.17,1659.67 2584.5,1665.67 2576.5,1669C 2505.17,1669.5 2433.83,1669.67 2362.5,1669.5C 2362.5,1662.17 2362.5,1654.83 2362.5,1647.5C 2370.83,1647.5 2379.17,1647.5 2387.5,1647.5C 2387.5,1559.17 2387.5,1470.83 2387.5,1382.5C 2379.17,1382.5 2370.83,1382.5 2362.5,1382.5C 2362.2,1375.08 2362.54,1367.75 2363.5,1361.4 Z" /></g>

		</svg>