<svg xmlns="http://www.w3.org/2000/svg" viewBox="1.41 1.41 252.9 252.9">
	<g transform="translate(1.4065934065934016 1.4065934065934016) scale(2.81 2.81)">
		<circle fill=" #fff" cx="45" cy="45" r="45" transform="matrix(1 0 0 1 0 0)"/>
		<g fill="#000">
			<path d="M 54.717 63.299 c -0.264 -0.074 -0.566 -0.011 -0.769 0.164 c -5.643 5.009 -7.288 5.625 -7.734 5.657 c -0.056 0.004 -0.18 -0.048 -0.344 -0.211 c -0.206 -0.201 -0.317 -0.465 -0.342 -0.807 c -0.172 -2.383 1.447 -9.741 4.812 -21.87 c 2.826 -10.143 3.089 -12.2 3.041 -12.863 c -0.071 -0.99 -0.563 -1.759 -1.46 -2.287 c -0.854 -0.501 -2.025 -0.701 -3.477 -0.596 c -2.448 0.177 -5.362 1.206 -8.661 3.06 c -0.943 0.531 -1.926 1.166 -2.92 1.886 c -2.622 1.9 -4.06 4.79 -3.848 7.729 c 0.017 0.241 0.206 0.446 0.478 0.522 c 0.273 0.075 0.578 0.005 0.773 -0.177 c 2.602 -2.419 4.335 -3.902 5.153 -4.409 c 0.873 -0.54 1.651 -0.837 2.315 -0.885 c 0.245 -0.018 0.368 -0.027 0.397 0.38 c 0.039 0.541 -0.047 1.188 -0.255 1.919 c -4.927 16.991 -7.17 27.343 -6.86 31.647 c 0.106 1.463 0.672 2.6 1.684 3.382 c 1.024 0.793 2.363 1.137 3.976 1.02 c 1.757 -0.127 3.866 -0.902 6.446 -2.369 c 1.241 -0.706 2.849 -1.847 4.78 -3.391 c 2.277 -1.822 3.475 -4.366 3.287 -6.98 C 55.171 63.581 54.987 63.377 54.717 63.299 z" transform=" matrix(1 0 0 1 0 0)" stroke-linecap="round"/>
			<circle cx="50.830999999999996" cy="19.591" r="6.171" transform="  matrix(1 0 0 1 0 0)"/>
		</g>
	</g>
</svg>