<svg xmlns="http://www.w3.org/2000/svg" fill="none" viewBox="136.15 136.15 807.7 914.09">
	<defs>
		<radialGradient id="diamondColor" cx="50%" cy="50%" fx="50%" fy="50%" r="50%">
			<stop offset="0%" stop-color="#00FFF0"/>
			<stop offset="100%" stop-color="#008CFF"/>
		</radialGradient>
	</defs>
	<path transform="rotate(-0.00 540.00 540.00)" fill="url(#diamondColor)" stroke="#FFFFFF" stroke-width="7.319052" stroke-linejoin="miter" stroke-linecap="square" d="M357.02,722.98L139.81,540.00L357.02,357.02L540.00,139.81L722.98,357.02L940.19,540.00L722.98,722.98L540.00,940.19L357.02,722.98z"/>
	<path stroke="#FFFFFF" stroke-width="7.319052" stroke-linejoin="miter" stroke-linecap="square" d="M335.86,699.02L142.87,490.66L380.98,335.86L589.34,142.87L744.14,380.98L937.13,589.34L699.02,744.14L490.66,937.13L335.86,699.02z"/>
	<path stroke="#FFFFFF" stroke-width="7.319052" stroke-linejoin="miter" stroke-linecap="square" d="M514.58,905.85L415.15,618.43L561.62,173.60L708.09,618.43L514.58,905.85z"/>
	<g transform="translate(200 980) scale(0.720)">
		<g transform="translate(865 3.050) scale(0.150)">
			<rect width="630" height="630" fill="url(#diamondColor)"/>
			<path fill="#fff" d="m423.2 492.19c12.69 20.72 29.2 35.95 58.4 35.95 24.53 0 40.2-12.26 40.2-29.2 0-20.3-16.1-27.49-43.1-39.3l-14.8-6.35c-42.72-18.2-71.1-41-71.1-89.2 0-44.4 33.83-78.2 86.7-78.2 37.64 0 64.7 13.1 84.2 47.4l-46.1 29.6c-10.15-18.2-21.1-25.37-38.1-25.37-17.34 0-28.33 11-28.33 25.37 0 17.76 11 24.95 36.4 35.95l14.8 6.34c50.3 21.57 78.7 43.56 78.7 93 0 53.3-41.87 82.5-98.1 82.5-54.98 0-90.5-26.2-107.88-60.54zm-209.13 5.13c9.3 16.5 17.76 30.45 38.1 30.45 19.45 0 31.72-7.61 31.72-37.2v-201.3h59.2v202.1c0 61.3-35.94 89.2-88.4 89.2-47.4 0-74.85-24.53-88.81-54.075z"/>
		</g>
		<path fill="#fff" stroke-linecap="round" fill-rule="evenodd" d="M 576.6 92.8 L 579.9 85 A 20.562 20.562 0 0 0 583.717 87.373 A 24.737 24.737 0 0 0 585.5 88.15 Q 588.259 89.228 592.059 89.376 A 31.788 31.788 0 0 0 593.3 89.4 A 21.701 21.701 0 0 0 597.821 88.957 Q 600.722 88.339 602.922 86.859 A 12.576 12.576 0 0 0 604.45 85.65 A 11.352 11.352 0 0 0 607.357 81.157 Q 608.5 78.056 608.5 73.7 L 608.5 67.3 Q 606.5 69.7 602.75 71.85 Q 599 74 593.8 74 Q 587.9 74 582.6 70.95 A 22.236 22.236 0 0 1 575.308 64.112 A 27.437 27.437 0 0 1 574 62 A 25.181 25.181 0 0 1 571.287 54.376 A 35.033 35.033 0 0 1 570.7 47.8 A 32.06 32.06 0 0 1 571.617 39.992 A 26.682 26.682 0 0 1 573.95 33.9 A 25.706 25.706 0 0 1 580.014 26.278 A 24.448 24.448 0 0 1 582.7 24.3 Q 588.2 20.8 594.8 20.8 A 22.366 22.366 0 0 1 599.62 21.301 A 18.715 18.715 0 0 1 602.8 22.3 A 25.705 25.705 0 0 1 606.628 24.268 A 20.998 20.998 0 0 1 609 26 L 609 22 L 617.2 22 L 617.2 72.8 Q 617.2 81.4 614.2 86.8 Q 611.2 92.2 605.85 94.7 A 25.811 25.811 0 0 1 599.246 96.721 A 35.243 35.243 0 0 1 593.3 97.2 Q 588.7 97.2 584.35 96.1 A 27.232 27.232 0 0 1 579.05 94.183 A 23.518 23.518 0 0 1 576.6 92.8 Z M 635.1 92.8 L 638.4 85 A 20.562 20.562 0 0 0 642.217 87.373 A 24.737 24.737 0 0 0 644 88.15 Q 646.759 89.228 650.559 89.376 A 31.788 31.788 0 0 0 651.8 89.4 A 21.701 21.701 0 0 0 656.321 88.957 Q 659.222 88.339 661.422 86.859 A 12.576 12.576 0 0 0 662.95 85.65 A 11.352 11.352 0 0 0 665.857 81.157 Q 667 78.056 667 73.7 L 667 67.3 Q 665 69.7 661.25 71.85 Q 657.5 74 652.3 74 Q 646.4 74 641.1 70.95 A 22.236 22.236 0 0 1 633.808 64.112 A 27.437 27.437 0 0 1 632.5 62 A 25.181 25.181 0 0 1 629.787 54.376 A 35.033 35.033 0 0 1 629.2 47.8 A 32.06 32.06 0 0 1 630.117 39.992 A 26.682 26.682 0 0 1 632.45 33.9 A 25.706 25.706 0 0 1 638.514 26.278 A 24.448 24.448 0 0 1 641.2 24.3 Q 646.7 20.8 653.3 20.8 A 22.366 22.366 0 0 1 658.12 21.301 A 18.715 18.715 0 0 1 661.3 22.3 A 25.705 25.705 0 0 1 665.128 24.268 A 20.998 20.998 0 0 1 667.5 26 L 667.5 22 L 675.7 22 L 675.7 72.8 Q 675.7 81.4 672.7 86.8 Q 669.7 92.2 664.35 94.7 A 25.811 25.811 0 0 1 657.746 96.721 A 35.243 35.243 0 0 1 651.8 97.2 Q 647.2 97.2 642.85 96.1 A 27.232 27.232 0 0 1 637.55 94.183 A 23.518 23.518 0 0 1 635.1 92.8 Z M 777.8 92.8 L 781.1 85 A 20.562 20.562 0 0 0 784.917 87.373 A 24.737 24.737 0 0 0 786.7 88.15 Q 789.459 89.228 793.259 89.376 A 31.788 31.788 0 0 0 794.5 89.4 A 21.701 21.701 0 0 0 799.021 88.957 Q 801.922 88.339 804.122 86.859 A 12.576 12.576 0 0 0 805.65 85.65 A 11.352 11.352 0 0 0 808.557 81.157 Q 809.7 78.056 809.7 73.7 L 809.7 67.3 Q 807.7 69.7 803.95 71.85 Q 800.2 74 795 74 Q 789.1 74 783.8 70.95 A 22.236 22.236 0 0 1 776.508 64.112 A 27.437 27.437 0 0 1 775.2 62 A 25.181 25.181 0 0 1 772.487 54.376 A 35.033 35.033 0 0 1 771.9 47.8 A 32.06 32.06 0 0 1 772.817 39.992 A 26.682 26.682 0 0 1 775.15 33.9 A 25.706 25.706 0 0 1 781.214 26.278 A 24.448 24.448 0 0 1 783.9 24.3 Q 789.4 20.8 796 20.8 A 22.366 22.366 0 0 1 800.82 21.301 A 18.715 18.715 0 0 1 804 22.3 A 25.705 25.705 0 0 1 807.828 24.268 A 20.998 20.998 0 0 1 810.2 26 L 810.2 22 L 818.4 22 L 818.4 72.8 Q 818.4 81.4 815.4 86.8 Q 812.4 92.2 807.05 94.7 A 25.811 25.811 0 0 1 800.446 96.721 A 35.243 35.243 0 0 1 794.5 97.2 Q 789.9 97.2 785.55 96.1 A 27.232 27.232 0 0 1 780.25 94.183 A 23.518 23.518 0 0 1 777.8 92.8 Z M 514.3 55.8 L 514.3 22 L 523.3 22 L 523.3 54.6 A 22.981 22.981 0 0 0 523.554 58.134 Q 523.842 59.981 524.457 61.469 A 10.136 10.136 0 0 0 525.9 63.95 A 8.404 8.404 0 0 0 531.013 66.971 A 12.807 12.807 0 0 0 533.5 67.2 Q 537.6 67.2 541.45 65.55 Q 545.3 63.9 548.3 61.1 L 548.3 22 L 557.3 22 L 557.3 60.5 A 15.602 15.602 0 0 0 557.402 62.354 Q 557.734 65.116 559.15 66.15 Q 561 67.5 563.2 67.5 L 561.3 74.5 Q 552 74.5 549.8 67.1 Q 546.3 70.7 541.7 72.95 Q 537.1 75.2 531.8 75.2 Q 527.3 75.2 523.3 73.3 A 14.441 14.441 0 0 1 517.79 68.661 A 18.266 18.266 0 0 1 516.8 67.15 A 16.24 16.24 0 0 1 515.136 63.057 Q 514.3 59.905 514.3 55.8 Z M 725.2 74 L 716.2 74 L 716.2 22 L 724.9 22 L 724.9 30.7 Q 727.7 26.5 732.05 23.65 A 17.316 17.316 0 0 1 739.156 21.025 A 22.629 22.629 0 0 1 742.4 20.8 A 23.225 23.225 0 0 1 747.465 21.318 Q 752.559 22.456 755.55 26.1 Q 759.675 31.126 759.888 39.209 A 33.764 33.764 0 0 1 759.9 40.1 L 759.9 74 L 750.9 74 L 750.9 41.1 A 19.265 19.265 0 0 0 750.558 37.359 Q 750.119 35.145 749.119 33.397 A 10.966 10.966 0 0 0 748.25 32.1 A 8.579 8.579 0 0 0 741.973 28.747 A 12.061 12.061 0 0 0 740.9 28.7 A 13.122 13.122 0 0 0 734.051 30.664 A 17.353 17.353 0 0 0 732.2 31.95 Q 728.1 35.2 725.2 39.6 L 725.2 74 Z M 463.8 69.7 L 463.8 74 L 455.4 74 L 455.4 0 L 464.4 0 L 464.4 27.4 Q 466.4 25.1 470.25 22.95 A 16.584 16.584 0 0 1 475.481 21.128 A 22.424 22.424 0 0 1 479.4 20.8 Q 485.4 20.8 490.65 23.95 A 22.329 22.329 0 0 1 497.828 30.917 A 27.464 27.464 0 0 1 499.1 33.05 Q 502.3 39 502.3 47.5 A 33.315 33.315 0 0 1 501.613 54.388 A 27.75 27.75 0 0 1 500.3 58.8 A 29.367 29.367 0 0 1 497.139 64.804 A 25.482 25.482 0 0 1 494.95 67.55 A 24.894 24.894 0 0 1 488.819 72.464 A 23.302 23.302 0 0 1 487.4 73.2 A 20.006 20.006 0 0 1 480.034 75.16 A 19.209 19.209 0 0 1 478.8 75.2 Q 474.3 75.2 470.35 73.55 A 30.274 30.274 0 0 1 467.047 71.942 Q 465.222 70.903 463.8 69.7 Z M 233.6 51.7 L 197.2 51.7 A 24.088 24.088 0 0 0 198.339 56.725 Q 199.675 60.538 202.3 63.1 Q 206.5 67.2 213.4 67.2 Q 217.9 67.2 221.5 66.25 Q 225.1 65.3 228.4 63.8 L 230.5 71.5 A 40.77 40.77 0 0 1 226.165 73.126 A 51.863 51.863 0 0 1 222.4 74.15 A 38.914 38.914 0 0 1 217.308 74.969 A 52.025 52.025 0 0 1 212.3 75.2 A 28.318 28.318 0 0 1 204.554 74.195 A 21.108 21.108 0 0 1 194.55 68.05 A 23.521 23.521 0 0 1 189.345 58.51 Q 188 53.845 188 48 A 35.359 35.359 0 0 1 188.833 40.178 A 28.84 28.84 0 0 1 190.95 34.05 A 24.642 24.642 0 0 1 195.966 26.968 A 22.887 22.887 0 0 1 199.2 24.35 A 21.048 21.048 0 0 1 209.459 20.878 A 26.205 26.205 0 0 1 211.5 20.8 Q 219 20.8 223.95 24.05 Q 228.9 27.3 231.4 32.8 A 28.185 28.185 0 0 1 233.826 42.664 A 33.434 33.434 0 0 1 233.9 44.9 A 75.204 75.204 0 0 1 233.609 51.597 A 69.426 69.426 0 0 1 233.6 51.7 Z M 443.1 51.7 L 406.7 51.7 A 24.088 24.088 0 0 0 407.839 56.725 Q 409.175 60.538 411.8 63.1 Q 416 67.2 422.9 67.2 Q 427.4 67.2 431 66.25 Q 434.6 65.3 437.9 63.8 L 440 71.5 A 40.77 40.77 0 0 1 435.665 73.126 A 51.863 51.863 0 0 1 431.9 74.15 A 38.914 38.914 0 0 1 426.808 74.969 A 52.025 52.025 0 0 1 421.8 75.2 A 28.318 28.318 0 0 1 414.054 74.195 A 21.108 21.108 0 0 1 404.05 68.05 A 23.521 23.521 0 0 1 398.845 58.51 Q 397.5 53.845 397.5 48 A 35.359 35.359 0 0 1 398.333 40.178 A 28.84 28.84 0 0 1 400.45 34.05 A 24.642 24.642 0 0 1 405.466 26.968 A 22.887 22.887 0 0 1 408.7 24.35 A 21.048 21.048 0 0 1 418.959 20.878 A 26.205 26.205 0 0 1 421 20.8 Q 428.5 20.8 433.45 24.05 Q 438.4 27.3 440.9 32.8 A 28.185 28.185 0 0 1 443.326 42.664 A 33.434 33.434 0 0 1 443.4 44.9 A 75.204 75.204 0 0 1 443.109 51.597 A 69.426 69.426 0 0 1 443.1 51.7 Z M 155.8 56.1 L 155.8 31.7 L 146.8 31.7 L 146.8 23.9 L 156 23.9 L 157.9 7.5 L 164.8 7.5 L 164.8 23.9 L 179.2 23.9 L 179.2 31.7 L 164.8 31.7 L 164.8 56.8 A 21.559 21.559 0 0 0 164.968 59.596 Q 165.441 63.202 167.25 64.9 Q 169.7 67.2 173.1 67.2 Q 175.6 67.2 177.85 66.4 Q 180.1 65.6 182 64.5 L 184.5 71.7 A 18.546 18.546 0 0 1 182.882 72.556 Q 182.08 72.935 181.134 73.308 A 43.365 43.365 0 0 1 179.1 74.05 Q 175.7 75.2 172 75.2 Q 164.5 75.2 160.15 70.25 A 16.116 16.116 0 0 1 156.922 64.348 Q 156.159 61.917 155.915 58.98 A 34.777 34.777 0 0 1 155.8 56.1 Z M 295.1 56.1 L 295.1 31.7 L 286.1 31.7 L 286.1 23.9 L 295.3 23.9 L 297.2 7.5 L 304.1 7.5 L 304.1 23.9 L 318.5 23.9 L 318.5 31.7 L 304.1 31.7 L 304.1 56.8 A 21.559 21.559 0 0 0 304.268 59.596 Q 304.741 63.202 306.55 64.9 Q 309 67.2 312.4 67.2 Q 314.9 67.2 317.15 66.4 Q 319.4 65.6 321.3 64.5 L 323.8 71.7 A 18.546 18.546 0 0 1 322.182 72.556 Q 321.38 72.935 320.434 73.308 A 43.365 43.365 0 0 1 318.4 74.05 Q 315 75.2 311.3 75.2 Q 303.8 75.2 299.45 70.25 A 16.116 16.116 0 0 1 296.222 64.348 Q 295.459 61.917 295.215 58.98 A 34.777 34.777 0 0 1 295.1 56.1 Z M 333.8 73.8 L 333.8 4.2 Q 338.5 3.7 343 3.45 A 151.31 151.31 0 0 1 347.186 3.279 Q 350.038 3.2 353.3 3.2 A 48.608 48.608 0 0 1 360.644 3.726 Q 364.578 4.328 367.91 5.618 A 29.198 29.198 0 0 1 368.85 6 A 30.978 30.978 0 0 1 376.139 10.32 A 27.223 27.223 0 0 1 379.65 13.7 Q 383.9 18.6 385.95 25.05 A 44.256 44.256 0 0 1 387.922 36.046 A 51.506 51.506 0 0 1 388 38.9 A 45.309 45.309 0 0 1 386.519 50.597 A 41.802 41.802 0 0 1 385.9 52.7 Q 383.8 59.2 379.45 64.15 Q 375.1 69.1 368.35 71.95 Q 362.075 74.6 353.509 74.786 A 60.192 60.192 0 0 1 352.2 74.8 A 186.98 186.98 0 0 1 348.129 74.758 Q 346.115 74.714 344.322 74.624 A 101.5 101.5 0 0 1 342.25 74.5 Q 338 74.2 333.8 73.8 Z M 9.5 74 L 0 74 L 0 4.2 Q 4.1 3.7 9.05 3.45 A 200.806 200.806 0 0 1 17.98 3.204 A 221.966 221.966 0 0 1 19.3 3.2 Q 26.87 3.2 32.472 5.282 A 26.011 26.011 0 0 1 34.1 5.95 A 24.606 24.606 0 0 1 39.182 8.979 A 19.374 19.374 0 0 1 43.4 13.5 Q 46.6 18.3 46.6 24.5 A 25.258 25.258 0 0 1 45.892 30.622 A 19.268 19.268 0 0 1 42.9 37.2 A 22.312 22.312 0 0 1 35.349 43.83 A 28.065 28.065 0 0 1 32.6 45.15 A 34.774 34.774 0 0 1 24.511 47.374 A 47.194 47.194 0 0 1 17.3 47.9 Q 13.1 47.9 9.5 47.6 L 9.5 74 Z M 281.8 23.9 L 279.1 31.5 A 30.422 30.422 0 0 0 276.196 30.224 A 23.42 23.42 0 0 0 273.75 29.45 A 20.543 20.543 0 0 0 270.707 28.924 A 26.355 26.355 0 0 0 268.1 28.8 A 15.889 15.889 0 0 0 260.847 30.443 A 16.132 16.132 0 0 0 256.35 33.85 Q 251.6 38.9 251.6 47.8 A 25.192 25.192 0 0 0 252.305 53.86 A 21.45 21.45 0 0 0 253.6 57.6 A 18.564 18.564 0 0 0 256.51 62.177 A 16.275 16.275 0 0 0 259.15 64.6 Q 262.7 67.2 267.5 67.2 Q 270.665 67.2 273.068 66.61 A 15.08 15.08 0 0 0 274 66.35 Q 276.689 65.503 279.776 63.912 A 49.095 49.095 0 0 0 279.8 63.9 L 282.6 71.5 Q 279.5 73.2 275.65 74.2 Q 271.8 75.2 266.9 75.2 A 26.803 26.803 0 0 1 259.861 74.31 A 22.074 22.074 0 0 1 253.95 71.75 Q 248.4 68.3 245.4 62.15 Q 242.4 56 242.4 48 Q 242.4 40.5 245.45 34.3 Q 248.5 28.1 254.2 24.45 A 23.067 23.067 0 0 1 263.868 21.029 A 29.608 29.608 0 0 1 267.6 20.8 Q 272 20.8 275.35 21.6 Q 278.7 22.4 281.8 23.9 Z M 66.1 74 L 57.1 74 L 57.1 22 L 65.8 22 L 65.8 33.3 Q 67.1 30 69.3 27.15 Q 71.5 24.3 74.8 22.55 A 14.817 14.817 0 0 1 79.48 21.026 A 19.459 19.459 0 0 1 82.5 20.8 Q 84 20.8 85.5 20.95 A 18.972 18.972 0 0 1 86.555 21.084 Q 87.055 21.162 87.482 21.262 A 8.817 8.817 0 0 1 88 21.4 L 85.3 30.7 A 9.763 9.763 0 0 0 83.155 30.088 Q 82.059 29.9 80.8 29.9 A 12.958 12.958 0 0 0 74.17 31.746 A 15.609 15.609 0 0 0 73.75 32 Q 70.422 34.086 68.278 38.442 A 22.927 22.927 0 0 0 68.25 38.5 Q 66.487 42.107 66.17 47.328 A 39.09 39.09 0 0 0 66.1 49.7 L 66.1 74 Z M 102.6 71.75 A 24.559 24.559 0 0 0 107.198 73.84 Q 111.253 75.2 115.9 75.2 Q 123.3 75.2 129.15 71.8 Q 135 68.4 138.4 62.25 A 26.255 26.255 0 0 0 141.053 55.109 A 34.184 34.184 0 0 0 141.8 47.8 A 34.542 34.542 0 0 0 141.315 41.891 A 25.795 25.795 0 0 0 138.35 33.45 Q 134.9 27.4 129.05 24.1 A 24.848 24.848 0 0 0 124.409 22.073 A 27.738 27.738 0 0 0 115.9 20.8 A 31.325 31.325 0 0 0 114.32 20.839 A 26.169 26.169 0 0 0 102.7 24.1 Q 96.8 27.4 93.4 33.5 A 26.023 26.023 0 0 0 90.651 41.09 A 35.006 35.006 0 0 0 90 48 A 34.82 34.82 0 0 0 90.265 52.354 A 27.451 27.451 0 0 0 93.35 62.15 Q 96.7 68.3 102.6 71.75 Z M 343.3 11.9 L 343.3 66 Q 345.4 66.3 347.7 66.4 A 107.265 107.265 0 0 0 351.263 66.494 A 121.297 121.297 0 0 0 352.5 66.5 A 37.906 37.906 0 0 0 358.664 66.028 Q 363.593 65.215 367.2 63 Q 372.9 59.5 375.6 53.25 A 32.292 32.292 0 0 0 377.854 45.176 A 42.502 42.502 0 0 0 378.3 38.9 Q 378.3 31.7 375.6 25.4 Q 372.9 19.1 367.3 15.25 A 20.895 20.895 0 0 0 360.248 12.19 Q 357.407 11.511 354.096 11.416 A 38.008 38.008 0 0 0 353 11.4 Q 350.1 11.4 347.7 11.55 Q 345.3 11.7 343.3 11.9 Z M 700.2 74 L 691.2 74 L 691.2 22 L 700.2 22 L 700.2 74 Z M 115.9 67.2 Q 123.8 67.2 128.2 61.85 A 18.802 18.802 0 0 0 132.019 53.76 A 27.105 27.105 0 0 0 132.6 48 Q 132.6 42.8 130.4 38.45 A 19.198 19.198 0 0 0 126.228 32.881 A 18.17 18.17 0 0 0 124.45 31.45 Q 120.7 28.8 115.9 28.8 A 19.249 19.249 0 0 0 110.674 29.472 A 14.037 14.037 0 0 0 103.6 34 A 17.878 17.878 0 0 0 99.926 41.374 Q 99.2 44.306 99.2 47.8 Q 99.2 53 101.4 57.45 A 19.437 19.437 0 0 0 104.93 62.49 A 17.627 17.627 0 0 0 107.35 64.55 Q 111.1 67.2 115.9 67.2 Z M 464.4 35.4 L 464.4 63.2 A 17.99 17.99 0 0 0 468.03 65.385 A 21.802 21.802 0 0 0 469.8 66.1 A 19.462 19.462 0 0 0 475.964 67.196 A 22.039 22.039 0 0 0 476.4 67.2 Q 481.3 67.2 485.05 64.8 Q 488.8 62.4 490.95 58 Q 493.1 53.6 493.1 47.8 Q 493.1 41.8 490.95 37.5 Q 488.8 33.2 485.25 30.9 Q 481.7 28.6 477.4 28.6 A 14.741 14.741 0 0 0 471.773 29.663 A 14.054 14.054 0 0 0 469.65 30.75 Q 466.2 32.9 464.4 35.4 Z M 608.2 60 L 608.2 32.8 Q 606.034 31.225 602.997 29.941 A 36.018 36.018 0 0 0 602.9 29.9 A 16.249 16.249 0 0 0 599.096 28.849 A 22.135 22.135 0 0 0 595.7 28.6 Q 591.6 28.6 588 30.8 Q 584.4 33 582.15 37.15 Q 579.9 41.3 579.9 47.3 A 24.32 24.32 0 0 0 580.378 52.236 A 18.311 18.311 0 0 0 582.15 57.2 A 18.576 18.576 0 0 0 585.061 61.275 A 15.802 15.802 0 0 0 588 63.7 Q 591.6 66 595.8 66 A 15.276 15.276 0 0 0 600.378 65.332 A 13.606 13.606 0 0 0 603 64.2 A 20.855 20.855 0 0 0 605.981 62.184 A 16.309 16.309 0 0 0 608.2 60 Z M 666.7 60 L 666.7 32.8 Q 664.534 31.225 661.497 29.941 A 36.018 36.018 0 0 0 661.4 29.9 A 16.249 16.249 0 0 0 657.596 28.849 A 22.135 22.135 0 0 0 654.2 28.6 Q 650.1 28.6 646.5 30.8 Q 642.9 33 640.65 37.15 Q 638.4 41.3 638.4 47.3 A 24.32 24.32 0 0 0 638.878 52.236 A 18.311 18.311 0 0 0 640.65 57.2 A 18.576 18.576 0 0 0 643.561 61.275 A 15.802 15.802 0 0 0 646.5 63.7 Q 650.1 66 654.3 66 A 15.276 15.276 0 0 0 658.878 65.332 A 13.606 13.606 0 0 0 661.5 64.2 A 20.855 20.855 0 0 0 664.481 62.184 A 16.309 16.309 0 0 0 666.7 60 Z M 809.4 60 L 809.4 32.8 Q 807.234 31.225 804.197 29.941 A 36.018 36.018 0 0 0 804.1 29.9 A 16.249 16.249 0 0 0 800.296 28.849 A 22.135 22.135 0 0 0 796.9 28.6 Q 792.8 28.6 789.2 30.8 Q 785.6 33 783.35 37.15 Q 781.1 41.3 781.1 47.3 A 24.32 24.32 0 0 0 781.578 52.236 A 18.311 18.311 0 0 0 783.35 57.2 A 18.576 18.576 0 0 0 786.261 61.275 A 15.802 15.802 0 0 0 789.2 63.7 Q 792.8 66 797 66 A 15.276 15.276 0 0 0 801.578 65.332 A 13.606 13.606 0 0 0 804.2 64.2 A 20.855 20.855 0 0 0 807.181 62.184 A 16.309 16.309 0 0 0 809.4 60 Z M 9.5 11.6 L 9.5 39.5 Q 10.6 39.637 12.031 39.751 A 96.255 96.255 0 0 0 13.4 39.85 Q 15.7 40 18.5 40 A 31.831 31.831 0 0 0 23.88 39.574 Q 26.759 39.08 29.063 38.011 A 15.221 15.221 0 0 0 32.3 36 A 12.896 12.896 0 0 0 37.155 26.558 A 17.32 17.32 0 0 0 37.2 25.3 A 14.452 14.452 0 0 0 36.439 20.507 A 12.136 12.136 0 0 0 32.5 15 A 15.462 15.462 0 0 0 27.419 12.336 Q 25.193 11.626 22.5 11.36 A 34.58 34.58 0 0 0 19.1 11.2 A 131.125 131.125 0 0 0 15.842 11.239 A 109.939 109.939 0 0 0 14 11.3 A 91.274 91.274 0 0 0 11.117 11.464 A 75.041 75.041 0 0 0 9.5 11.6 Z M 197.1 44.4 L 225.6 44.4 A 24.355 24.355 0 0 0 225.196 39.815 Q 224.7 37.231 223.596 35.207 A 12.422 12.422 0 0 0 221.8 32.7 A 12.488 12.488 0 0 0 214.839 28.924 A 18.395 18.395 0 0 0 211.3 28.6 A 13.58 13.58 0 0 0 206.188 29.535 A 12.524 12.524 0 0 0 201.7 32.65 Q 197.9 36.7 197.1 44.4 Z M 406.6 44.4 L 435.1 44.4 A 24.355 24.355 0 0 0 434.696 39.815 Q 434.2 37.231 433.096 35.207 A 12.422 12.422 0 0 0 431.3 32.7 A 12.488 12.488 0 0 0 424.339 28.924 A 18.395 18.395 0 0 0 420.8 28.6 A 13.58 13.58 0 0 0 415.688 29.535 A 12.524 12.524 0 0 0 411.2 32.65 Q 407.4 36.7 406.6 44.4 Z M 836.263 73.262 A 6.418 6.418 0 0 0 840.9 75.2 A 8.605 8.605 0 0 0 841.522 75.178 A 6.461 6.461 0 0 0 845.7 73.35 Q 847.6 71.5 847.6 68.5 A 6.225 6.225 0 0 0 847.021 65.829 A 6.955 6.955 0 0 0 845.55 63.8 Q 843.5 61.8 840.9 61.8 A 8.813 8.813 0 0 0 839.047 61.985 A 5.979 5.979 0 0 0 836 63.6 A 5.927 5.927 0 0 0 834.432 66.44 A 8.624 8.624 0 0 0 834.2 68.5 Q 834.2 71.2 836.2 73.2 A 8.317 8.317 0 0 0 836.263 73.262 Z M 691.337 11.288 A 5.973 5.973 0 0 0 695.7 13.1 A 8.175 8.175 0 0 0 697.196 12.969 A 5.647 5.647 0 0 0 700.3 11.35 Q 702 9.6 702 6.8 A 7.26 7.26 0 0 0 702 6.719 A 6.06 6.06 0 0 0 700.15 2.35 A 7.395 7.395 0 0 0 700.092 2.293 A 6.059 6.059 0 0 0 695.7 0.5 A 8.264 8.264 0 0 0 694.044 0.658 A 5.661 5.661 0 0 0 691.1 2.2 A 5.588 5.588 0 0 0 689.629 4.832 A 7.987 7.987 0 0 0 689.4 6.8 A 5.992 5.992 0 0 0 689.892 9.219 A 6.643 6.643 0 0 0 691.25 11.2 A 7.466 7.466 0 0 0 691.337 11.288 Z"/>
	</g>
</svg>