<svg xmlns="http://www.w3.org/2000/svg" viewBox="1 2.4 12 9.2">
	<defs>
		<linearGradient id="grad0" x1="0%" y1="0%" x2="100%" y2="25%">
			<stop offset="0%" stop-color="rgba(0, 140, 255, 1)"/>
			<stop offset="100%" stop-color="rgba(0, 255, 240, 1)"/>
		</linearGradient>
	</defs>
	<path d="M13 4.1974q0 .3097-.21677.5265L7.17806 10.329l-1.0529 1.0529q-.21677.2168-.52645.2168-.30968 0-.52645-.2168L4.01935 10.329 1.21677 7.5264Q1 7.3097 1 7t.21677-.5265l1.05291-1.0529q.21677-.2167.52645-.2167.30968 0 .52645.2167l2.27613 2.2839 5.07871-5.0864q.21677-.2168.52645-.2168.30968 0 .52645.2168l1.05291 1.0529Q13 3.8877 13 4.1974z" fill="url(#grad0)"/>
</svg>