<svg xmlns="http://www.w3.org/2000/svg" viewBox="138.59 100.7 1003.61 823">
	<style>
		.st0{clip-path:url(#SVGID_00000018207366157330380310000000787424481139896230_);}
		.st1{fill:#F01919;}
		.st2{fill:#FFFFFF;}
		.st3{fill:#FFB921;}
		.st4{fill:#FFE35B;}
		.st5{fill:#C95E40;}
		.st6{fill:#FFBF21;}
	</style>
	<g>
		<defs>
			<rect id="SVGID_1_" x="138.6" y="100.7" width="1003.5" height="823"/>
		</defs>
		<clipPath id="SVGID_00000137101317191985428110000014574860031076612009_">
			<use href="#SVGID_1_" style="overflow:visible;"/>
		</clipPath>
		<g style="clip-path:url(#SVGID_00000137101317191985428110000014574860031076612009_);">
			<path d="M915.8,201.5l6.3-87.7l-49-3.2l1.2-8.2l-74.3,5.9l-2.2,10.2l-6-9.4l-59.7,4.8l-2.2,10.9l-5.4-10.3l-52.4,4.2l-5.7-18
				l-94.2,6.3l-2.5,15.2c-10-10.4-22.9-16.2-38.5-16.8l-65-2.8l-5.1,19.2c-1.3-1.5-2.8-2.7-4.4-4c-9.5-7.5-20.6-10.5-33-9l-72.4,9
				l-6.7,65.1l13.2,17.3l8.2,71.8l36.9,33.6l63.5-7.8c5.8-0.7,11.1-2.4,15.8-4.8l83.5,3.6l-0.8,4l63.2-4.2l3.5-16.2l9.3-0.6l3.7,15.8
				l46.8-3.1l4.3,13.4l62.8-5l1.3-7l2.3,6.6l58.4-4.6l-0.2,2.8l82,5.4l37-33.6l19.4-66.4L915.8,201.5z"/>
			<path d="M936.2,268.2H340.2v91.4h595.9V268.2z"/>
			<path d="M1099.2,377.3l43-126.7l-110.6-29.6l-3.9,10.8c-1.2-0.1-2.2-0.2-3.2-0.3l-12.6-0.7c-32.1-1.9-59.2,5.9-80.7,23.1
				c-12.5,10-22,22.3-28.5,36.9c-15.5-11-33.9-17-54.9-18l-117.9-5.4l-10.9,40.7l-11.5-45.6H574.3l0.4-1.3l-27.9,1.3h-6.9l-0.1,0.3
				l-93.9,4.3l-1.5,9.3l-66.5,3.7l14.9-55.4L268,204.9l-2.8,12.2c-1.6,0-2.9,0.1-4.1,0.2l-13.2,1c-33.2,2.5-60.3,14.3-80.1,35
				c-21.7,22.5-31.4,51.8-28.8,87.2c1,13.2,3.6,25.3,8.2,36.3l24.1,42.4l-21.9,118.7l44,57.4l11,5.4c30,14.5,60,21.9,89.2,21.9
				c4.4,0,8.7-0.2,13.1-0.5c33.3-2.5,60.7-14.1,81.6-34.4l0.1-0.1c9.3-9.3,16.7-19.8,21.9-31.3l2.5,54.8h200l8.9-39h27.5l5.4,39H915
				c16.2,5.9,32.7,9.3,49,10.3c3.2,0.2,6.5,0.3,9.6,0.3c27.9,0,52.3-7.6,72.4-22.5l0.1-0.1c9.7-7.3,17.9-16.1,24.1-25.9l34.9-49
				c1.5-2,3-4.1,4.4-6.2l2-2.7h-0.2c10-16.4,15.8-35.8,17.1-57.6C1130.1,425.1,1120.3,398.2,1099.2,377.3z"/>
			<path class="st1" d="M349.7,516.9c-19.2,18.7-44.5,29.2-76,31.6c-32.9,2.4-66.6-4.6-101.1-21.3l16.1-88l38,14.2
				c15.4,5,28.4,7.1,39.2,6.3c12.4-0.9,18.3-6.1,17.6-15.3c-0.5-7-10.9-13.2-31.3-18.7c-26.3-7.1-45.5-14.5-57.4-22.4
				c-21.3-14.4-33-35.9-35-64.4c-2.1-29,5.5-52.6,22.8-70.6c16.3-17,38.5-26.6,66.6-28.7l13.2-1c1.7-0.1,4.1-0.2,7.3-0.1
				c3.2,0.1,7.2,0.2,11.9,0.5l2.2-9.8l82.2,13.1l-24,89.6c-8.6-4.4-50-16.6-67.5-13.9c-13.2,2-19.6,6.2-18.8,15.4
				c0.4,5.8,10.7,11.4,30.8,17c26,7.3,44.8,15.1,56.2,23c21.1,14.8,32.6,36.3,34.7,64.4C379.6,470,370.5,496.4,349.7,516.9z"/>
			<path class="st1" d="M527,362.5l-55.8,2.4l7.8,160l-67.3,3.4l-8.2-161l-54.6,3.4l13.8-68.3l99.4-5.6l1.4-9.1l83.5-3.8L527,362.5z"
				/>
			<path class="st1" d="M924.6,383.7c1.2-25.2-5.7-46.2-20.4-62.8c-14.5-16.7-33.7-25.5-57.6-26.7l-101.1-4.6l-18.6,69l15.5,0.7
				L735,526.9l70.5,3.3l3.1-70.1l27.2,71.5l84.3,3.9L884.4,457C909.8,441.3,923.2,416.9,924.6,383.7z"/>
			<path d="M826,358.6l-20.6-0.6l-1.4,46.5l20.6,0.6c12.6,0.4,23.1-9.7,23.5-22.5C848.5,369.8,838.6,359.1,826,358.6z"/>
			<path class="st1" d="M1071.4,527.6c-20.4,15.2-45.7,22-75.8,20.1c-31.4-1.9-62.4-12.9-93-33.1l26.1-81.2l34.3,18.3
				c14,6.7,26,10.3,36.3,11c11.9,0.7,18-3.4,18.6-12.2c0.4-6.6-8.7-13.9-27.4-21.7c-24-10.1-41.2-19.6-51.6-28.6
				c-18.4-16.4-26.8-38.3-25.2-65.5c1.6-27.8,11.6-49.1,30.2-63.9c17.5-14,39.6-20.2,66.6-18.6l12.6,0.7c1.6,0.1,3.9,0.4,6.9,0.8
				c3,0.5,6.8,1.1,11.2,1.9l3.3-9l70.4,18.9l-29.3,89c-7.6-5.2-17.5-10.3-29.7-15.6c-13.7-5.8-24.1-9-31.2-9.3
				c-12.6-0.7-19.3,3.4-19.7,12.2c-0.4,5.5,8.7,12.2,27,20.1c23.7,10.3,40.5,20,50.4,28.9c18.1,16.7,26.4,38.5,24.9,65.4
				C1105.6,487,1093.6,510.8,1071.4,527.6z"/>
			<path class="st1" d="M673.9,528l-5.9-34.2h-64.3L594,528h-78.1l46.6-176.8L541,351l15.4-67.1h134.7L752.5,528H673.9z"/>
			<path class="st2" d="M447.5,181.3c9.3-7.5,13.2-17.7,11.8-30.4c-1.1-9.2-4.8-16.2-11.2-21.4c-6.4-5.1-14-7.2-22.5-6.1l-61.1,7.5
				l-3.9,38.1l8.1-1l10.2,89.8l59.6-7.3c9.6-1.2,17.2-5.2,22.8-12.1c6.2-7.2,8.7-15.8,7.6-25.8c-0.9-8.1-3-14.4-6.4-19.1
				C459.7,189.5,454.6,185.4,447.5,181.3z"/>
			<path class="st2" d="M569.2,248l-18.3-40.5c13.3-8.5,20.4-21.7,21.1-39.5c0.5-13.5-3.1-24.9-10.8-33.8
				c-7.6-8.9-17.8-13.7-30.5-14.2l-53.4-2.3l-9.7,37.2l8.2,0.4l-3.6,90.2l37.2,1.6l1.5-37.7l14.5,38.4l43.4,1.9l1.2,0.1L569.2,248z"
				/>
			<path class="st2" d="M900.4,215.3l6.4-87.8l-42.7-2.7l-5.3,37.4l8.2,0.6l-6.5,89.2l68.3,4.5l11.4-39L900.4,215.3z"/>
			<path class="st2" d="M810.2,122.4l-9.3,52l-17.3-49.9l-37.1,3l-9.4,52l-17.2-49.9l-47.2,3.8l40,124.9l48.8-3.9l9.6-50.6l17.2,48.5
				l48.7-3.9l20.4-129.8L810.2,122.4z"/>
			<path class="st2" d="M655.3,246.7l-4.3-18l-34.2,2.3l-4,18.5l-41.6,2.7l18.8-95.8l-11.4,0.6l5.9-36.2l71.7-4.7l41,127.8
				L655.3,246.7z M629.2,158.4l-7.4,38.5l18.8-1.3L629.2,158.4z"/>
			<path d="M523.2,156.1l-10.5-0.4l-0.7,23.7l10.5,0.4c6.4,0.2,11.8-4.9,12-11.5C534.7,161.8,529.7,156.3,523.2,156.1z"/>
			<path d="M410.8,159l-7.7,0.8l1.7,17.4l7.7-0.8c4.7-0.5,8.1-4.8,7.6-9.6C419.7,162.1,415.5,158.5,410.8,159z"/>
			<path d="M417.9,202.9l-9.9,1l2.2,22.2l9.9-1c6-0.6,10.4-6.1,9.8-12.2C429.3,206.8,424,202.4,417.9,202.9z"/>
			<path d="M641.5,359.1l-19,71.3l35.6,0.3L641.5,359.1z"/>
			<path d="M528.9,773.6c34.3,14.2,76,24,120.3,18.8c101.4-12.1,89.1-109.3,89.1-109.3l-27.9,3.4c52.3-43.3,23.1-110.5,23.1-110.5
				L528.8,660l-0.4-0.2v114.1C528.6,773.8,528.7,773.7,528.9,773.6z"/>
			<path d="M741.4,773.6c-34.3,14.2-76,24-120.3,18.8c-101.4-12.1-89.1-109.3-89.1-109.3l27.9,3.4c-52.4-43.3-23.1-110.5-23.1-110.5
				L741.4,660l0.4-0.2v114.1C741.6,773.8,741.5,773.7,741.4,773.6z"/>
			<path d="M848.4,677.4c9.3-16.2,13.9-34.9,13.2-55.6c-0.9-24.5-8.9-43.2-9.2-44c-2.8-6.6-10.3-9.7-16.9-7l-199.9,82l-0.4-0.2v14.5
				l0.4,0.2l204.8-84.1c0,0,29.2,67.2-23.1,110.5l27.9-3.4c0,0,12.3,97.4-89.1,109.3c-44.4,5.3-86-4.6-120.3-18.8
				c-0.2,0.1-0.4,0.1-0.4,0.2v14.4c0.2-0.1,0.4-0.1,0.4-0.2c32.6,12.8,64.7,19.2,95.8,19.2c8.8,0,17.4-0.5,26-1.5
				c34.7-4.1,61.1-17.9,78.7-40.8c27.6-36.1,22.2-81.7,22-83.6C857.4,683.1,853.5,678.6,848.4,677.4z"/>
			<path class="st2" d="M635.6,781c34.3,14.2,76,24,120.3,18.8c101.5-12.1,89.2-109.4,89.2-109.4l-27.9,3.4
				c52.4-43.3,23.1-110.5,23.1-110.5l-204.8,84.1l-0.4-0.2v114.1C635.3,781.1,635.4,781,635.6,781z"/>
			<path d="M421.8,677.4c-9.3-16.2-13.9-34.9-13.2-55.6c0.9-24.5,8.9-43.2,9.2-44c2.8-6.6,10.3-9.7,16.9-7l199.9,82l0.4-0.2v14.5
				l-0.4,0.2l-204.8-84.1c0,0-29.2,67.2,23.1,110.5l-27.9-3.4c0,0-12.3,97.4,89.1,109.3c44.4,5.3,86-4.6,120.3-18.8
				c0.2,0.1,0.4,0.1,0.4,0.2v14.4c-0.2-0.1-0.4-0.1-0.4-0.2c-32.6,12.8-64.7,19.2-95.8,19.2c-8.8,0-17.4-0.5-26-1.5
				c-34.7-4.1-61.1-17.9-78.7-40.8c-27.6-36.1-22.2-81.7-22-83.6C412.8,683.1,416.8,678.6,421.8,677.4z"/>
			<path class="st2" d="M634.6,781c-34.3,14.2-76,24-120.3,18.8c-101.4-12.1-89.1-109.3-89.1-109.3l27.9,3.4
				c-52.4-43.3-23.1-110.5-23.1-110.5l204.8,84.1l0.4-0.2v114.1C635,781.1,634.8,781,634.6,781z"/>
			<path d="M758.3,750l24.9-86.8l-86.7-21.3l-61.7-65.2L573.4,642l-86.6,21.6l25.1,86.7L487,837.2l86.7,21.3l61.7,65.2l61.6-65.4
				l86.6-21.5L758.3,750z"/>
			<path d="M803.2,781.4l-24.8-85.8l24.6-85.9l4.3-15.2l-15-3.6l-85.8-21.1l-61.1-64.6l-10.6-11.3l-10.7,11.3l-60.9,64.8l-85.7,21.3
				l-15,3.8l4.4,15.2l24.9,85.7l-24.6,85.9l-4.4,15.2l15,3.7l85.8,21l61.1,64.6l10.7,11.2l10.6-11.2l60.9-64.8l85.8-21.3l15-3.7
				L803.2,781.4z"/>
			<path class="st3" d="M763,695.6l25.8-90.1L699,583.4l-64.1-67.8l-63.9,68L481.1,606l26,90l-25.8,90.1l89.9,22.1l64,67.8l63.9-68
				l89.9-22.3L763,695.6z"/>
			<path class="st4" d="M788.8,605.5L699,583.4l-64.1-67.8l0.3,180.2L788.8,605.5z"/>
			<path class="st3" d="M635.1,695.8l153.9,89.9l-26-90.1l25.8-90.1L635.1,695.8z"/>
			<path class="st2" d="M635.1,695.8l-0.3-180.2l-63.9,68L481.1,606L635.1,695.8z"/>
			<path class="st5" d="M635.3,876l63.9-68l89.9-22.3l-153.9-89.9L635.3,876z"/>
			<path class="st4" d="M481.4,786.1l153.8-90.3l-154-89.8l26,90L481.4,786.1z"/>
			<path class="st3" d="M635.1,695.8l-153.8,90.3l89.9,22.1l64,67.8L635.1,695.8z"/>
			<path d="M635.1,805.4c59.8,0,108.3-49.4,108.3-110.4c0-61-48.5-110.4-108.3-110.4c-59.8,0-108.3,49.4-108.3,110.4
				C526.8,756,575.3,805.4,635.1,805.4z"/>
			<path d="M635.1,783.5c48,0,86.9-39.7,86.9-88.6c0-48.9-38.9-88.6-86.9-88.6c-48,0-86.9,39.7-86.9,88.6
				C548.2,743.9,587.1,783.5,635.1,783.5z"/>
			<path class="st4" d="M526.8,695c0.9,14.4,4.2,28.6,10,41.6c2.8,6.4,6.3,12.6,10.4,18.4c4,5.7,8.5,11.2,13.5,16
				c19.9,19.5,47,30.7,74.4,30.5c27.4,0.2,54.6-11,74.4-30.5c5-4.8,9.5-10.3,13.5-16c4-5.7,7.5-11.9,10.4-18.4
				c5.9-12.9,9.2-27,10-41.6c0.9,14.5-1.4,29.2-6.5,43c-2.6,6.9-5.8,13.5-9.7,19.8c-3.8,6.3-8.4,12.1-13.4,17.5l-3.9,3.9
				c-1.3,1.3-2.7,2.5-4.1,3.7c-1.4,1.2-2.8,2.4-4.3,3.5c-1.5,1.1-2.9,2.2-4.4,3.3c-6,4.2-12.4,7.8-19.2,10.8
				c-13.5,5.8-28.2,8.8-42.8,8.9c-14.7-0.1-29.3-3-42.8-8.9c-13.4-5.9-25.8-14.4-35.9-25.2c-5.1-5.4-9.6-11.2-13.4-17.4
				c-3.8-6.3-7.1-12.9-9.7-19.8C528.2,724.2,525.9,709.4,526.8,695z"/>
			<path class="st6" d="M635.1,602.9c-49.7,0-90,42.9-90,88.1c0,29.7,17.5,52.9,43.6,65.3v10.4c0,5.6,4.4,10.2,10,10.2h72.9
				c5.5,0,10-4.5,10-10.2v-10.4c26.1-12.4,43.6-35.6,43.6-65.3C725.2,645.9,684.8,602.9,635.1,602.9z M642,681.4l11.6-11.8
				c2.4-2.4,6.4-2.4,8.8,0c2.4,2.4,2.4,6.5,0,9l-11.6,11.8c-1.2,1.3-2.8,1.9-4.4,1.9s-3.2-0.6-4.4-1.9
				C639.5,687.8,639.5,683.8,642,681.4z M608.7,669.6c2.4-2.4,6.4-2.4,8.8,0l11.6,11.8c2.4,2.5,2.4,6.5,0,9c-1.2,1.3-2.8,1.9-4.4,1.9
				c-1.6,0-3.2-0.6-4.4-1.9l-11.6-11.8C606.3,676.1,606.3,672,608.7,669.6z M595.3,737.5c-14.5,0-26.2-12.4-26.2-27.7
				c0-15.2,11.7-27.7,26.2-27.7c14.5,0,26.2,12.4,26.2,27.7C621.5,725.1,609.8,737.5,595.3,737.5z M621.5,742.2c0,0,14-23,14-23
				l13.1,23C648.6,742.3,621.5,742.3,621.5,742.2z M676.9,737.5c-14.5,0-26.2-12.4-26.2-27.7c0-15.2,11.7-27.7,26.2-27.7
				c14.5,0,26.2,12.4,26.2,27.7C703.1,725.1,691.4,737.5,676.9,737.5z"/>
			<path class="st2" d="M623.9,626.5c-6.2-10-23.4-10.3-38.3-0.7c-14.9,9.6-22,25.6-15.7,35.6c6.2,10,23.4,10.3,38.3,0.7
				C623.1,652.3,630.2,636.5,623.9,626.5z"/>
		</g>
	</g>
</svg>