<svg xmlns="http://www.w3.org/2000/svg" viewBox="25.83 131.99 1006.75 857.46" stroke-linejoin="miter" stroke-linecap="square" fill="#ffffff" stroke="#ffffff">
	<path fill-opacity="0.510" stroke-width="28.08" d="M1005.81,382.32L524.98,146.03L52.41,382.32C211.31,501.49,370.21,620.67,529.11,620.67C688.01,620.67,846.91,501.49,1005.81,382.32z"/>
	<path fill-opacity="0.590" stroke-opacity="1.000" stroke-width="28.0520" d="M1005.81,505.94L524.98,269.66L52.41,505.94C211.31,625.12,370.21,744.29,529.11,744.29C688.01,744.29,846.91,625.12,1005.81,505.94z"/>
	<g fill="none" stroke="#ffffff" stroke-width="28.08">
		<path d="M39.89,489.49L39.87,393.93"/>
		<path d="M1018.54,393.85L1018.49,489.40"/>
		<path d="M525.21,261.50L524.76,172.16"/>
	</g>
	<g stroke="none">
		<path fill-opacity="0.510" d="M1005.81,508.88Q847.54,455.77,1005.81,388.36"/>
		<path fill-opacity="0.510" d="M53.07,510.42Q211.34,457.31,53.07,389.90"/>
	</g>
	<g style="transform: translateX(50px) translateY(850px)">
		<path stroke="#ffffff" stroke-width="1.5px" transform="scale(1.9)" d="M 499.8 71.5L 454.9 71.5L 454.9 67.5L 460.9 67.5L 460.9 5.5L 454.9 5.5L 454.9 1.5L 497.8 1.5Q 500 1.5 501.05 1.65A 2.957 2.957 0 0 1 502.3 2.148A 4.27 4.27 0 0 1 503 2.75Q 503.9 3.7 503.9 5.7L 501.2 22.5L 497.3 22.5L 495.3 12.6Q 494.457 8.385 492.254 6.978A 4.362 4.362 0 0 0 491.95 6.8Q 490.09 5.814 485.84 5.576A 52.884 52.884 0 0 0 482.9 5.5L 475.9 5.5L 475.9 39.7L 498.9 39.7L 498.9 44.2L 475.9 44.2L 475.9 67.5L 484.9 67.5Q 491.4 67.5 493.85 66.2Q 496.208 64.949 497.223 60.732A 19.468 19.468 0 0 0 497.3 60.4L 499.3 51.5L 503.2 51.5L 505.9 67.3A 7.067 7.067 0 0 1 505.825 68.369Q 505.64 69.575 505 70.25A 4.25 4.25 0 0 1 504.281 70.865A 2.949 2.949 0 0 1 503.05 71.35Q 502 71.5 499.8 71.5ZM 9.4 50.2L 9.4 58.6A 7.61 7.61 0 0 0 11.321 63.64A 11.944 11.944 0 0 0 13.2 65.4Q 16.903 68.226 22.695 68.298A 24.482 24.482 0 0 0 23 68.3A 20.128 20.128 0 0 0 26.83 67.958Q 29.096 67.518 30.877 66.515A 11.007 11.007 0 0 0 32.5 65.4A 9.355 9.355 0 0 0 35.969 58.584A 12.472 12.472 0 0 0 36 57.7Q 36 51.6 28.7 47.6L 13.9 39.7A 29.134 29.134 0 0 1 7.219 34.88A 20.065 20.065 0 0 1 1.1 20A 19.04 19.04 0 0 1 6.868 6.132A 24.001 24.001 0 0 1 7.1 5.9A 18.9 18.9 0 0 1 14.558 1.481Q 17.498 0.509 21.076 0.175A 42.244 42.244 0 0 1 25 0Q 33 0 40.2 3.2A 23.801 23.801 0 0 1 43.005 4.658Q 47.4 7.363 47.4 10.8A 6.412 6.412 0 0 1 47.218 12.264Q 46.953 13.394 46.3 14.7L 41.5 23.9L 38 22.8L 38 14.4A 7.891 7.891 0 0 0 35.291 8.25A 10.586 10.586 0 0 0 34.05 7.3A 15.679 15.679 0 0 0 27.597 4.906A 20.465 20.465 0 0 0 24.65 4.7A 14.875 14.875 0 0 0 21.348 5.045Q 18.248 5.75 16.3 7.9A 11.233 11.233 0 0 0 14.04 11.547A 10.431 10.431 0 0 0 13.4 15.2Q 13.4 23.4 20.8 27.3L 33.5 34A 37.823 37.823 0 0 1 40.18 38.376Q 48 44.894 48 54A 19.832 19.832 0 0 1 47.129 60.041A 15.273 15.273 0 0 1 40.95 68.2A 26.583 26.583 0 0 1 31.832 72.082Q 27.825 73 23.1 73Q 15 73 7.5 69.8A 25.18 25.18 0 0 1 4.578 68.343Q 0 65.638 0 62.2A 6.412 6.412 0 0 1 0.182 60.737Q 0.447 59.607 1.1 58.3L 5.9 49.1L 9.4 50.2ZM 127.1 50.2L 127.1 58.6A 7.61 7.61 0 0 0 129.021 63.64A 11.944 11.944 0 0 0 130.9 65.4Q 134.603 68.226 140.395 68.298A 24.482 24.482 0 0 0 140.7 68.3A 20.128 20.128 0 0 0 144.53 67.958Q 146.796 67.518 148.577 66.515A 11.007 11.007 0 0 0 150.2 65.4A 9.355 9.355 0 0 0 153.669 58.584A 12.472 12.472 0 0 0 153.7 57.7Q 153.7 51.6 146.4 47.6L 131.6 39.7A 29.134 29.134 0 0 1 124.919 34.88A 20.065 20.065 0 0 1 118.8 20A 19.04 19.04 0 0 1 124.568 6.132A 24.001 24.001 0 0 1 124.8 5.9A 18.9 18.9 0 0 1 132.258 1.481Q 135.198 0.509 138.776 0.175A 42.244 42.244 0 0 1 142.7 0Q 150.7 0 157.9 3.2A 23.801 23.801 0 0 1 160.705 4.658Q 165.1 7.363 165.1 10.8A 6.412 6.412 0 0 1 164.918 12.264Q 164.653 13.394 164 14.7L 159.2 23.9L 155.7 22.8L 155.7 14.4A 7.891 7.891 0 0 0 152.991 8.25A 10.586 10.586 0 0 0 151.75 7.3A 15.679 15.679 0 0 0 145.297 4.906A 20.465 20.465 0 0 0 142.35 4.7A 14.875 14.875 0 0 0 139.048 5.045Q 135.948 5.75 134 7.9A 11.233 11.233 0 0 0 131.74 11.547A 10.431 10.431 0 0 0 131.1 15.2Q 131.1 23.4 138.5 27.3L 151.2 34A 37.823 37.823 0 0 1 157.88 38.376Q 165.7 44.894 165.7 54A 19.832 19.832 0 0 1 164.829 60.041A 15.273 15.273 0 0 1 158.65 68.2A 26.583 26.583 0 0 1 149.532 72.082Q 145.525 73 140.8 73Q 132.7 73 125.2 69.8A 25.18 25.18 0 0 1 122.278 68.343Q 117.7 65.638 117.7 62.2A 6.412 6.412 0 0 1 117.882 60.737Q 118.147 59.607 118.8 58.3L 123.6 49.1L 127.1 50.2ZM 101 71.5L 66 71.5L 66 67.5L 76 67.5L 76 46.5L 57.8 5.5L 53 5.5L 53 1.5L 72.8 1.5L 88.6 40.7L 97.6 1.5L 112.7 1.5L 112.7 5.5L 108 5.5L 91 46.5L 91 67.5L 101 67.5L 101 71.5ZM 313.7 71.5L 278.7 71.5L 278.7 67.5L 288.7 67.5L 288.7 46.5L 270.5 5.5L 265.7 5.5L 265.7 1.5L 285.5 1.5L 301.3 40.7L 310.3 1.5L 325.4 1.5L 325.4 5.5L 320.7 5.5L 303.7 46.5L 303.7 67.5L 313.7 67.5L 313.7 71.5Z M 259.2 54.1L 262.7 56.6A 50.737 50.737 0 0 1 258.031 62.987A 36.817 36.817 0 0 1 251.95 68.65Q 246 73 236.7 73A 29.847 29.847 0 0 1 224.431 70.537A 28.892 28.892 0 0 1 214 62.5A 37.363 37.363 0 0 1 205.621 42.981A 49.931 49.931 0 0 1 205.2 36.4A 45.571 45.571 0 0 1 206.825 23.954A 35.824 35.824 0 0 1 214 10.4Q 222.8 0 238.4 0Q 246.5 0 254 3.2A 25.18 25.18 0 0 1 256.922 4.658Q 261.5 7.363 261.5 10.8A 6.412 6.412 0 0 1 261.318 12.264Q 261.053 13.394 260.4 14.7L 254.4 26.3L 250.8 25.2L 251.7 19A 29.357 29.357 0 0 0 252.061 15.795A 25.279 25.279 0 0 0 252.1 14.4A 7.61 7.61 0 0 0 250.179 9.36A 11.944 11.944 0 0 0 248.3 7.6A 13.527 13.527 0 0 0 243.297 5.255Q 241.347 4.77 239.06 4.709A 24.883 24.883 0 0 0 238.4 4.7A 13.259 13.259 0 0 0 227.626 9.84A 20.867 20.867 0 0 0 225.2 13.65A 39.292 39.292 0 0 0 221.97 23.019Q 220.7 28.882 220.7 36A 62.105 62.105 0 0 0 221.313 44.999Q 222.407 52.455 225.45 57.9A 19.021 19.021 0 0 0 228.99 62.541A 14.219 14.219 0 0 0 239.1 66.4Q 244.1 66.4 248.3 64.3Q 251.273 62.814 253.218 61.227A 14.489 14.489 0 0 0 254.65 59.9A 38.216 38.216 0 0 0 256.509 57.746Q 257.446 56.58 258.426 55.207A 71.394 71.394 0 0 0 259.2 54.1ZM 384.9 54.1L 388.4 56.6A 50.737 50.737 0 0 1 383.731 62.987A 36.817 36.817 0 0 1 377.65 68.65Q 371.7 73 362.4 73A 29.847 29.847 0 0 1 350.131 70.537A 28.892 28.892 0 0 1 339.7 62.5A 37.363 37.363 0 0 1 331.321 42.981A 49.931 49.931 0 0 1 330.9 36.4A 45.571 45.571 0 0 1 332.525 23.954A 35.824 35.824 0 0 1 339.7 10.4Q 348.5 0 364.1 0Q 372.2 0 379.7 3.2A 25.18 25.18 0 0 1 382.622 4.658Q 387.2 7.363 387.2 10.8A 6.412 6.412 0 0 1 387.018 12.264Q 386.753 13.394 386.1 14.7L 380.1 26.3L 376.5 25.2L 377.4 19A 29.357 29.357 0 0 0 377.761 15.795A 25.279 25.279 0 0 0 377.8 14.4A 7.61 7.61 0 0 0 375.879 9.36A 11.944 11.944 0 0 0 374 7.6A 13.527 13.527 0 0 0 368.997 5.255Q 367.047 4.77 364.76 4.709A 24.883 24.883 0 0 0 364.1 4.7A 13.259 13.259 0 0 0 353.326 9.84A 20.867 20.867 0 0 0 350.9 13.65A 39.292 39.292 0 0 0 347.67 23.019Q 346.4 28.882 346.4 36A 62.105 62.105 0 0 0 347.013 44.999Q 348.107 52.455 351.15 57.9A 19.021 19.021 0 0 0 354.69 62.541A 14.219 14.219 0 0 0 364.8 66.4Q 369.8 66.4 374 64.3Q 376.973 62.814 378.918 61.227A 14.489 14.489 0 0 0 380.35 59.9A 38.216 38.216 0 0 0 382.209 57.746Q 383.146 56.58 384.126 55.207A 71.394 71.394 0 0 0 384.9 54.1ZM 403.9 5.5L 397.9 5.5L 397.9 1.5L 424.9 1.5L 424.9 5.5L 418.9 5.5L 418.9 67.5L 425.9 67.5Q 432.5 67.5 434.95 66.2A 5.011 5.011 0 0 0 436.734 64.544Q 437.713 63.106 438.233 60.722A 18.965 18.965 0 0 0 438.3 60.4L 440.3 50.5L 444.2 50.5L 446.9 67.3A 7.067 7.067 0 0 1 446.825 68.369Q 446.64 69.575 446 70.25A 4.25 4.25 0 0 1 445.281 70.865A 2.949 2.949 0 0 1 444.05 71.35Q 443 71.5 440.8 71.5L 397.9 71.5L 397.9 67.5L 403.9 67.5L 403.9 5.5Z"/>
	</g>
</svg>