<svg xmlns="http://www.w3.org/2000/svg" viewBox="0 0 871 910">
	<path fill="#010100" d="M 427.5,-0.5 C 432.5,-0.5 437.5,-0.5 442.5,-0.5C 445.9,1.03697 449.233,2.8703 452.5,5C 493.167,36 533.833,67 574.5,98C 625.5,105 676.5,112 727.5,119C 741.543,121.712 749.377,130.212 751,144.5C 757.814,194.862 764.814,245.196 772,295.5C 803.667,337.167 835.333,378.833 867,420.5C 868.093,423.309 869.26,425.976 870.5,428.5C 870.5,436.5 870.5,444.5 870.5,452.5C 869.512,455.076 868.512,457.743 867.5,460.5C 834.647,501.823 802.48,543.823 771,586.5C 764.108,638.183 757.108,689.85 750,741.5C 746.771,753.03 739.271,759.863 727.5,762C 676.481,768.854 625.481,775.854 574.5,783C 533.167,814.333 491.833,845.667 450.5,877C 440.691,882.609 430.691,882.942 420.5,878C 378.833,846.333 337.167,814.667 295.5,783C 242.77,776.1 190.103,768.767 137.5,761C 128.157,757.656 122.323,751.156 120,741.5C 112.812,689.47 105.478,637.47 98,585.5C 66.3032,543.648 34.4698,501.982 2.5,460.5C 1.48615,458.426 0.486147,456.426 -0.5,454.5C -0.5,445.5 -0.5,436.5 -0.5,427.5C 0.95406,424.592 2.45406,421.592 4,418.5C 35.3333,377.167 66.6667,335.833 98,294.5C 105,243.5 112,192.5 119,141.5C 121.833,129.333 129.333,121.833 141.5,119C 192.833,112 244.167,105 295.5,98C 336.32,66.4242 377.32,35.0909 418.5,4C 421.592,2.45406 424.592,0.95406 427.5,-0.5 Z"/>
	<path fill="#0EFF0E" d="M 434.5,15.5 C 434.5,37.5 434.5,59.5 434.5,81.5C 399.66,108.168 364.66,134.668 329.5,161C 285.204,167.496 240.871,173.662 196.5,179.5C 178.234,166.355 159.9,153.188 141.5,140C 140.255,139.209 138.922,138.709 137.5,138.5C 192.312,130.36 247.312,122.527 302.5,115C 346.377,81.6169 390.377,48.4502 434.5,15.5 Z"/>
	<path fill="#0EFF0E" d="M 434.5,15.5 C 478.62,48.4056 522.62,81.5723 566.5,115C 621.671,122.643 676.671,130.476 731.5,138.5C 712.167,152.167 692.833,165.833 673.5,179.5C 628.717,174.126 584.05,167.96 539.5,161C 504.829,134.005 469.829,107.505 434.5,81.5C 434.5,59.5 434.5,37.5 434.5,15.5 Z"/>
	<path fill="#019701" d="M 434.5,81.5 C 469.829,107.505 504.829,134.005 539.5,161C 584.05,167.96 628.717,174.126 673.5,179.5C 679.296,223.496 685.129,267.496 691,311.5C 718.03,347.351 745.197,383.018 772.5,418.5C 744.814,453.363 717.647,488.696 691,524.5C 684.838,568.468 679.004,612.468 673.5,656.5C 629.104,661.703 584.771,667.537 540.5,674C 505.431,700.854 470.431,727.687 435.5,754.5C 399.678,727.523 363.678,700.69 327.5,674C 283.828,668.118 240.162,662.285 196.5,656.5C 190.66,612.117 184.493,567.784 178,523.5C 155.576,493.653 132.909,463.987 110,434.5C 105.651,429.122 101.818,423.455 98.5,417.5C 125.168,382.66 151.668,347.66 178,312.5C 184.494,268.211 190.66,223.877 196.5,179.5C 240.871,173.662 285.204,167.496 329.5,161C 364.66,134.668 399.66,108.168 434.5,81.5 Z"/>
	<path fill="#0EFF0E" d="M 137.5,138.5 C 138.922,138.709 140.255,139.209 141.5,140C 159.9,153.188 178.234,166.355 196.5,179.5C 190.66,223.877 184.494,268.211 178,312.5C 151.668,347.66 125.168,382.66 98.5,417.5C 71.7064,423.226 44.873,428.892 18,434.5C 17.2352,434.43 16.7352,434.097 16.5,433.5C 49.1167,389.71 81.9501,346.044 115,302.5C 122.735,247.857 130.235,193.19 137.5,138.5 Z"/>
	<path fill="#0EFF0E" d="M 731.5,138.5 C 739.401,193.353 747.234,248.353 755,303.5C 788,346.833 821,390.167 854,433.5C 854.692,434.437 854.525,435.103 853.5,435.5C 826.655,429.71 799.655,424.044 772.5,418.5C 745.197,383.018 718.03,347.351 691,311.5C 685.129,267.496 679.296,223.496 673.5,179.5C 692.833,165.833 712.167,152.167 731.5,138.5 Z"/>
	<path fill="#290311" d="M 667.5,411.5 C 655.789,321.232 608.789,256.732 526.5,218C 444.043,186.141 366.71,195.474 294.5,246C 241.889,287.031 211.389,340.864 203,407.5C 202.501,401.843 202.334,396.176 202.5,390.5C 211.36,302.555 254.693,238.055 332.5,197C 415.559,160.31 494.892,166.977 570.5,217C 635.143,265.454 667.477,330.287 667.5,411.5 Z"/>
	<path fill="#004401" d="M 667.5,411.5 C 667.593,417.863 667.26,424.196 666.5,430.5C 653.922,522.883 604.922,587.383 519.5,624C 431.101,654.937 351.101,640.603 279.5,581C 233.428,538.685 207.761,486.185 202.5,423.5C 201.248,412.353 201.248,401.353 202.5,390.5C 202.334,396.176 202.501,401.843 203,407.5C 211.389,340.864 241.889,287.031 294.5,246C 366.71,195.474 444.043,186.141 526.5,218C 608.789,256.732 655.789,321.232 667.5,411.5 Z M 466.5,384.5 C 484.18,390.725 501.514,397.725 518.5,405.5C 517.445,409.275 516.112,412.942 514.5,416.5C 512.233,421.112 510.233,425.945 508.5,431C 517.198,435.68 526.198,439.847 535.5,443.5C 528.771,460.183 521.937,476.85 515,493.5C 514.439,494.022 513.772,494.355 513,494.5C 504.746,490.971 496.413,487.638 488,484.5C 483.578,491.682 479.911,499.348 477,507.5C 475.274,508.576 473.441,508.743 471.5,508C 456.167,501.667 440.833,495.333 425.5,489C 424.446,487.612 424.28,486.112 425,484.5C 427.972,477.389 430.805,470.223 433.5,463C 425.494,458.667 417.161,454.834 408.5,451.5C 408.167,450.833 407.833,450.167 407.5,449.5C 413.41,432.751 420.076,416.417 427.5,400.5C 436.762,402.957 445.762,406.291 454.5,410.5C 457.227,405.313 459.56,399.979 461.5,394.5C 462.672,390.822 464.339,387.489 466.5,384.5 Z"/>
	<path fill="#0EFF0E" d="M 98.5,417.5 C 101.818,423.455 105.651,429.122 110,434.5C 132.909,463.987 155.576,493.653 178,523.5C 184.493,567.784 190.66,612.117 196.5,656.5C 176.815,680.695 157.648,705.361 139,730.5C 138.722,729.584 138.222,728.918 137.5,728.5C 130.604,674.393 123.104,620.393 115,566.5C 81.6412,522.642 48.4745,478.642 15.5,434.5C 15.6236,433.893 15.9569,433.56 16.5,433.5C 16.7352,434.097 17.2352,434.43 18,434.5C 44.873,428.892 71.7064,423.226 98.5,417.5 Z"/>
	<path fill="#0EFF0E" d="M 772.5,418.5 C 799.655,424.044 826.655,429.71 853.5,435.5C 820.933,479.574 787.767,523.241 754,566.5C 746.826,621.228 739.326,675.895 731.5,730.5C 711.816,706.144 692.483,681.478 673.5,656.5C 679.004,612.468 684.838,568.468 691,524.5C 717.647,488.696 744.814,453.363 772.5,418.5 Z"/>
	<path fill="#0EFF0E" d="M 202.5,423.5 C 207.761,486.185 233.428,538.685 279.5,581C 351.101,640.603 431.101,654.937 519.5,624C 604.922,587.383 653.922,522.883 666.5,430.5C 666.559,509.549 635.225,573.049 572.5,621C 509.699,664.357 441.365,676.024 367.5,656C 293.524,631.689 242.69,583.189 215,510.5C 205.444,482.109 201.278,453.109 202.5,423.5 Z"/>
	<path fill="#0EFF0E" d="M 196.5,656.5 C 240.162,662.285 283.828,668.118 327.5,674C 363.678,700.69 399.678,727.523 435.5,754.5C 435.5,787.5 435.5,820.5 435.5,853.5C 435.103,854.525 434.437,854.692 433.5,854C 390.167,821 346.833,788 303.5,755C 248.529,747.147 193.529,739.48 138.5,732C 137.663,730.989 137.33,729.822 137.5,728.5C 138.222,728.918 138.722,729.584 139,730.5C 157.648,705.361 176.815,680.695 196.5,656.5 Z"/>
	<path fill="#0EFF0E" d="M 673.5,656.5 C 692.483,681.478 711.816,706.144 731.5,730.5C 729.189,732.068 726.522,732.902 723.5,733C 671.12,740.054 618.786,747.388 566.5,755C 522.938,788.074 479.271,820.908 435.5,853.5C 435.5,820.5 435.5,787.5 435.5,754.5C 470.431,727.687 505.431,700.854 540.5,674C 584.771,667.537 629.104,661.703 673.5,656.5 Z"/>
	<path fill="#fffefd" transform="translate(278 378)" d="M 32.419 20.902 L 40.319 3.602 Q 41.519 0.602 52.819 0.602 A 48.01 48.01 0 0 1 55.18 0.665 Q 56.246 0.717 57.443 0.814 A 102.246 102.246 0 0 1 59.969 1.052 A 75.742 75.742 0 0 1 60.965 1.163 Q 64.145 1.543 64.217 1.886 A 0.077 0.077 0 0 1 64.219 1.902 L 47.219 36.502 L 64.819 69.602 A 0.118 0.118 0 0 1 64.837 69.663 Q 64.837 70.127 60.564 70.547 A 80.604 80.604 0 0 1 60.519 70.552 A 114.448 114.448 0 0 1 57.266 70.826 Q 55.992 70.914 54.856 70.958 A 55.48 55.48 0 0 1 52.719 71.002 A 72.864 72.864 0 0 1 48.402 70.885 Q 39.796 70.371 38.819 67.602 L 31.319 48.502 L 24.519 68.202 Q 23.519 71.002 11.719 71.002 Q 8.819 71.002 4.519 70.602 A 39.9 39.9 0 0 1 3.386 70.481 Q 0.295 70.104 0.615 69.509 A 0.323 0.323 0 0 1 0.619 69.502 L 16.219 34.902 L 0.019 1.902 Q -0.281 1.402 4.169 0.952 A 107.095 107.095 0 0 1 7.317 0.677 Q 8.819 0.57 10.125 0.528 A 49.884 49.884 0 0 1 11.719 0.502 A 67.574 67.574 0 0 1 16.042 0.628 Q 24.544 1.176 25.519 4.102 L 32.419 20.902 Z M 282.619 19.102 L 262.719 19.102 A 1.365 1.365 0 0 1 261.668 18.558 Q 260.889 17.649 260.44 15.221 A 22.9 22.9 0 0 1 260.319 14.502 A 23.931 23.931 0 0 1 260.081 12.304 A 31.3 31.3 0 0 1 260.019 10.302 A 23.486 23.486 0 0 1 260.289 6.816 A 27.542 27.542 0 0 1 260.519 5.502 A 16.322 16.322 0 0 1 260.899 3.938 Q 261.813 0.902 263.519 0.902 L 300.519 0.902 A 5.946 5.946 0 0 1 305.536 3.666 Q 307.517 6.441 308.419 12.002 Q 308.819 14.402 308.819 15.502 L 285.419 51.002 L 303.719 51.002 L 303.919 51.002 A 2.025 2.025 0 0 1 305.49 51.792 Q 306.189 52.606 306.661 54.259 A 17.156 17.156 0 0 1 307.019 55.802 A 27.616 27.616 0 0 1 307.413 59.98 A 30.788 30.788 0 0 1 307.419 60.602 Q 307.419 63.102 306.819 65.902 A 17.719 17.719 0 0 1 306.343 67.664 Q 305.27 70.902 303.419 70.902 L 264.519 70.902 A 0.661 0.661 0 0 1 264.093 70.652 Q 263.309 69.845 261.898 66.425 A 81.628 81.628 0 0 1 261.269 64.852 A 123.173 123.173 0 0 1 260.47 62.743 Q 258.932 58.555 258.919 57.322 A 1.972 1.972 0 0 1 258.919 57.302 A 12.107 12.107 0 0 1 258.929 56.778 Q 258.967 55.908 259.141 55.535 A 0.75 0.75 0 0 1 259.219 55.402 L 282.619 19.102 Z M 90.619 46.802 L 90.619 69.502 Q 90.619 71.102 81.119 71.102 A 96.129 96.129 0 0 1 78.353 71.065 Q 72.888 70.907 71.793 70.066 A 0.591 0.591 0 0 1 71.519 69.602 L 71.519 4.402 A 4.756 4.756 0 0 1 71.709 2.995 Q 72.188 1.45 73.873 1.045 A 5.782 5.782 0 0 1 75.219 0.902 L 94.319 0.902 A 49.492 49.492 0 0 1 103.918 1.747 Q 120.619 5.066 120.619 21.402 A 27.728 27.728 0 0 1 119.773 28.359 A 23.9 23.9 0 0 1 118.219 32.652 Q 115.819 37.702 111.419 40.702 L 124.019 61.702 A 5.664 5.664 0 0 1 123.227 63.188 Q 121.913 65.022 118.819 67.202 A 37.943 37.943 0 0 1 115.78 69.183 Q 112.642 71.003 110.202 71.394 A 8.107 8.107 0 0 1 108.919 71.502 A 8.583 8.583 0 0 1 106.575 71.2 A 6.048 6.048 0 0 1 103.119 68.702 L 93.719 46.802 L 90.619 46.802 Z M 149.619 46.802 L 149.619 69.502 Q 149.619 71.102 140.119 71.102 A 96.129 96.129 0 0 1 137.353 71.065 Q 131.888 70.907 130.793 70.066 A 0.591 0.591 0 0 1 130.519 69.602 L 130.519 4.402 A 4.756 4.756 0 0 1 130.709 2.995 Q 131.188 1.45 132.873 1.045 A 5.782 5.782 0 0 1 134.219 0.902 L 153.319 0.902 A 49.492 49.492 0 0 1 162.918 1.747 Q 179.619 5.066 179.619 21.402 A 27.728 27.728 0 0 1 178.773 28.359 A 23.9 23.9 0 0 1 177.219 32.652 Q 174.819 37.702 170.419 40.702 L 183.019 61.702 A 5.664 5.664 0 0 1 182.227 63.188 Q 180.913 65.022 177.819 67.202 A 37.943 37.943 0 0 1 174.78 69.183 Q 171.642 71.003 169.202 71.394 A 8.107 8.107 0 0 1 167.919 71.502 A 8.583 8.583 0 0 1 165.575 71.2 A 6.048 6.048 0 0 1 162.119 68.702 L 152.719 46.802 L 149.619 46.802 Z M 230.919 70.102 L 241.519 77.402 Q 242.119 77.802 242.119 78.852 A 1.818 1.818 0 0 1 241.997 79.44 Q 241.596 80.576 239.869 82.802 Q 237.619 85.702 234.469 87.252 Q 232.046 88.444 230.54 88.719 A 4.603 4.603 0 0 1 229.719 88.802 A 3.783 3.783 0 0 1 228.455 88.599 A 3.24 3.24 0 0 1 227.119 87.702 L 212.519 71.502 Q 201.319 69.402 194.419 60.252 Q 187.519 51.102 187.519 36.002 A 56.434 56.434 0 0 1 188.393 25.726 Q 190.316 15.358 196.469 9.102 A 30.072 30.072 0 0 1 215.692 0.182 A 40.83 40.83 0 0 1 219.569 0.002 A 36.356 36.356 0 0 1 229.98 1.422 A 28.352 28.352 0 0 1 242.419 8.952 A 27.926 27.926 0 0 1 248.735 19.56 Q 250.225 23.915 250.784 29.248 A 64.893 64.893 0 0 1 251.119 36.002 A 58.629 58.629 0 0 1 250.481 44.92 Q 249.263 52.823 245.719 58.402 Q 240.319 66.902 230.919 70.102 Z M 219.319 19.202 A 9.257 9.257 0 0 0 212.432 22.219 A 13.757 13.757 0 0 0 211.269 23.602 A 14.928 14.928 0 0 0 209.047 28.131 Q 208.413 30.198 208.17 32.692 A 33.657 33.657 0 0 0 208.019 35.952 Q 208.019 41.169 209.354 44.793 A 13.699 13.699 0 0 0 211.119 48.152 A 10.836 10.836 0 0 0 213.944 50.893 A 9.539 9.539 0 0 0 219.269 52.402 A 9.512 9.512 0 0 0 226.545 49.226 A 12.76 12.76 0 0 0 227.469 48.102 Q 229.849 44.852 230.431 39.49 A 34.26 34.26 0 0 0 230.619 35.802 A 31.67 31.67 0 0 0 230.302 31.163 Q 229.603 26.458 227.369 23.502 A 12.087 12.087 0 0 0 224.833 20.966 A 9.174 9.174 0 0 0 219.319 19.202 Z M 92.719 18.602 L 90.619 18.602 L 90.619 33.602 L 91.119 33.602 A 16.691 16.691 0 0 0 94.645 33.263 Q 100.619 31.966 100.619 25.702 A 11.162 11.162 0 0 0 100.456 23.727 Q 100.258 22.625 99.818 21.765 A 5.154 5.154 0 0 0 98.769 20.352 A 5.426 5.426 0 0 0 96.965 19.251 Q 95.384 18.642 93.035 18.604 A 19.524 19.524 0 0 0 92.719 18.602 Z M 151.719 18.602 L 149.619 18.602 L 149.619 33.602 L 150.119 33.602 A 16.691 16.691 0 0 0 153.645 33.263 Q 159.619 31.966 159.619 25.702 A 11.162 11.162 0 0 0 159.456 23.727 Q 159.258 22.625 158.818 21.765 A 5.154 5.154 0 0 0 157.769 20.352 A 5.426 5.426 0 0 0 155.965 19.251 Q 154.384 18.642 152.035 18.604 A 19.524 19.524 0 0 0 151.719 18.602 Z"/>
</svg>