<svg xmlns="http://www.w3.org/2000/svg" viewBox="3.14 4.26 59.26 57.59"><path fill="#369" d="M19.59 4.26h26.36A16.45 16.45 0 0 1 62.4 20.71V45.4a16.45 16.45 0 0 1-16.45 16.45H19.59A16.45 16.45 0 0 1 3.14 45.4V20.71A16.45 16.45 0 0 1 19.59 4.26"/><path fill="#fff" stroke="#fff" stroke-linecap="square" stroke-width=".64" d="M11.83 56.63 53.7 9.47l-30.1.05z"/><path fill="#fff" stroke="#fff" stroke-linecap="square" stroke-width=".447" d="M45.17 30.11c6.18 0 11.18 5 11.18 11.17s-5 11.18-11.18 11.18C39 52.46 34 47.45 34 41.28s5-11.17 11.17-11.17z"/><path fill="#fff" stroke="#fff" stroke-linecap="square" stroke-width="5.312" d="m29.04 25.46 13.29 13.41"/></svg>